<?xml version="1.0" encoding="utf-8"?>
<!-- Generator: Adobe Illustrator 19.2.0, SVG Export Plug-In . SVG Version: 6.00 Build 0)  -->
<svg version="1.1" id="Layer_1" xmlns="http://www.w3.org/2000/svg" xmlns:xlink="http://www.w3.org/1999/xlink" x="0px" y="0px"
	 viewBox="0 0 984 225" style="enable-background:new 0 0 984 225;" xml:space="preserve">
<style type="text/css">
	.st0{fill:#3E3E3E;}
	.st1{fill:#048CB9;}
</style>
<g>
	<g>
		<path class="st0" d="M279.7,54.9c0.2-0.4,0.5-0.7,0.9-1c0.4-0.3,0.8-0.4,1.3-0.4h9c0.4,0,0.8,0.1,1.3,0.4c0.4,0.3,0.7,0.6,0.9,1
			l18.8,43.7c0.2,0.4,0.1,0.8-0.1,1.2c-0.2,0.4-0.7,0.6-1.4,0.6h-11c-0.5,0-0.9-0.1-1.3-0.4c-0.4-0.3-0.7-0.6-0.9-1l-1.7-3.9
			c-0.2-0.4-0.5-0.7-0.9-1c-0.4-0.3-0.8-0.4-1.3-0.4h-13.6c-0.5,0-0.9,0.1-1.3,0.4c-0.4,0.3-0.7,0.6-0.9,1l-1.8,3.9
			c-0.2,0.4-0.5,0.7-0.9,1c-0.4,0.3-0.8,0.4-1.3,0.4h-11.1c-0.2,0-0.4,0-0.7-0.1c-0.2-0.1-0.4-0.2-0.6-0.4c-0.2-0.2-0.2-0.4-0.3-0.6
			s0-0.6,0.2-0.9L279.7,54.9z M283.5,82.8h5.7c0.4,0,0.7-0.1,0.9-0.4c0.2-0.3,0.2-0.6,0-1c-0.4-1.1-0.9-2.3-1.5-3.8
			c-0.6-1.4-1.2-2.8-1.7-4c-0.2-0.4-0.4-0.6-0.6-0.6c-0.2,0-0.4,0.2-0.6,0.6l-3.2,7.8c-0.2,0.4-0.2,0.7,0,1
			C282.7,82.7,283,82.8,283.5,82.8z"/>
		<path class="st0" d="M316.4,98.9v-44c0-0.4,0.1-0.8,0.5-1.1c0.3-0.3,0.7-0.4,1.1-0.4h17.5c6.7,0,12.2,2,16.5,5.9
			c2.3,2.1,4.1,4.7,5.3,7.6c1.2,3,1.8,6.3,1.8,10c0,3.7-0.6,7-1.8,10c-1.2,3-3,5.5-5.3,7.7c-2.1,1.9-4.6,3.4-7.4,4.4
			c-2.8,1-5.8,1.5-9.2,1.5h-17.5c-0.4,0-0.8-0.1-1.1-0.4C316.6,99.7,316.4,99.3,316.4,98.9z M330.7,88.6h4.8c1.2,0,2.4-0.1,3.7-0.4
			c1.3-0.3,2.4-0.9,3.5-1.7c1-0.8,1.9-2,2.5-3.5c0.7-1.5,1-3.5,1-5.9s-0.3-4.4-1-5.9c-0.7-1.5-1.5-2.7-2.6-3.5
			c-1.1-0.8-2.2-1.4-3.5-1.7c-1.3-0.3-2.5-0.5-3.7-0.5h-4.8c-0.4,0-0.8,0.2-1.1,0.5c-0.3,0.3-0.5,0.7-0.5,1.1V87
			c0,0.4,0.1,0.8,0.5,1.1C329.9,88.4,330.2,88.6,330.7,88.6z"/>
		<path class="st0" d="M378.7,99l-19.4-43.8c-0.2-0.5-0.2-0.9,0-1.3c0.2-0.4,0.6-0.6,1.1-0.6h10.5c0.4,0,0.8,0.1,1.3,0.4
			c0.4,0.3,0.7,0.6,0.9,1l11.3,25.8c0.2,0.4,0.5,0.6,0.8,0.6c0.3,0,0.6-0.2,0.8-0.6l11.2-25.8c0.2-0.4,0.5-0.7,0.9-1
			c0.4-0.3,0.8-0.4,1.3-0.4h10.7c0.5,0,0.8,0.2,1,0.5c0.2,0.4,0.2,0.7,0.1,1.1l-19.6,44c-0.2,0.4-0.5,0.7-0.9,1
			c-0.4,0.3-0.8,0.4-1.3,0.4h-8.5c-0.4,0-0.8-0.1-1.3-0.4C379.2,99.7,378.9,99.4,378.7,99z"/>
		<path class="st0" d="M429,66.7v2.7c0,0.4,0.1,0.8,0.4,1.1c0.3,0.3,0.7,0.4,1.1,0.4h17.4c0.4,0,0.8,0.2,1.1,0.4
			c0.3,0.3,0.5,0.7,0.5,1.1v8.9c0,0.4-0.2,0.8-0.5,1.1c-0.3,0.3-0.7,0.4-1.1,0.4h-17.4c-0.4,0-0.8,0.2-1.1,0.4
			c-0.3,0.3-0.4,0.7-0.4,1.1v2.4c0,0.4,0.1,0.8,0.4,1.1c0.3,0.3,0.7,0.4,1.1,0.4h20c0.4,0,0.8,0.2,1.1,0.4c0.3,0.3,0.4,0.7,0.4,1.1
			v8.9c0,0.4-0.2,0.8-0.4,1.1c-0.3,0.3-0.7,0.4-1.1,0.4h-32.7c-0.4,0-0.8-0.1-1.1-0.4c-0.3-0.3-0.4-0.7-0.4-1.1v-44
			c0-0.4,0.1-0.8,0.4-1.1c0.3-0.3,0.7-0.4,1.1-0.4h32.7c0.4,0,0.8,0.2,1.1,0.4c0.3,0.3,0.4,0.7,0.4,1.1v8.7c0,0.4-0.2,0.8-0.4,1.1
			c-0.3,0.3-0.7,0.4-1.1,0.4h-20c-0.4,0-0.8,0.2-1.1,0.5C429.1,65.9,429,66.3,429,66.7z"/>
		<path class="st0" d="M504.4,54.9v44c0,0.4-0.1,0.8-0.4,1.1c-0.3,0.3-0.7,0.4-1.1,0.4h-9.5c-0.4,0-0.9-0.1-1.3-0.4
			c-0.5-0.3-0.8-0.6-1.1-0.9l-16.7-23.6c-0.3-0.3-0.5-0.5-0.8-0.4c-0.3,0.1-0.4,0.3-0.4,0.7v23c0,0.4-0.2,0.8-0.5,1.1
			c-0.3,0.3-0.7,0.4-1.1,0.4h-9.6c-0.4,0-0.8-0.1-1.1-0.4c-0.3-0.3-0.5-0.7-0.5-1.1v-44c0-0.4,0.1-0.8,0.5-1.1
			c0.3-0.3,0.7-0.4,1.1-0.4h9.6c0.4,0,0.9,0.1,1.3,0.4c0.5,0.2,0.8,0.5,1.1,0.9l16.7,23.6c0.3,0.3,0.5,0.5,0.8,0.4
			c0.3,0,0.4-0.3,0.4-0.7v-23c0-0.4,0.1-0.8,0.4-1.1c0.3-0.3,0.7-0.4,1.1-0.4h9.5c0.4,0,0.8,0.2,1.1,0.4
			C504.3,54.1,504.4,54.5,504.4,54.9z"/>
		<path class="st0" d="M545.6,65.2h-9c-0.4,0-0.8,0.2-1.1,0.5c-0.3,0.3-0.5,0.7-0.5,1.1v32.1c0,0.4-0.1,0.8-0.4,1.1
			c-0.3,0.3-0.7,0.4-1.1,0.4h-9.6c-0.4,0-0.8-0.1-1.1-0.4c-0.3-0.3-0.5-0.7-0.5-1.1V66.7c0-0.4-0.1-0.8-0.4-1.1
			c-0.3-0.3-0.7-0.5-1.1-0.5h-9.1c-0.4,0-0.8-0.1-1.1-0.4c-0.3-0.3-0.5-0.7-0.5-1.1v-8.7c0-0.4,0.2-0.8,0.5-1.1
			c0.3-0.3,0.7-0.4,1.1-0.4h33.9c0.5,0,0.8,0.2,1.1,0.4c0.3,0.3,0.4,0.7,0.4,1.1v8.7c0,0.4-0.1,0.8-0.4,1.1
			C546.4,65,546,65.2,545.6,65.2z"/>
		<path class="st0" d="M552,55c0-0.4,0.1-0.8,0.4-1.1c0.3-0.3,0.7-0.4,1.1-0.4h9.7c0.4,0,0.8,0.2,1.1,0.4c0.3,0.3,0.4,0.7,0.4,1.1
			v26c0,1.7,0.3,3.1,0.8,4.1c0.5,1.1,1.2,2,2,2.6c0.8,0.6,1.6,1.1,2.5,1.3c0.9,0.3,1.7,0.4,2.5,0.4c0.7,0,1.5-0.1,2.5-0.4
			c0.9-0.3,1.7-0.7,2.5-1.3c0.8-0.6,1.4-1.5,2-2.6c0.5-1.1,0.8-2.5,0.8-4.1V55c0-0.4,0.1-0.8,0.4-1.1c0.3-0.3,0.7-0.4,1.1-0.4h9.7
			c0.4,0,0.8,0.2,1.1,0.4c0.3,0.3,0.4,0.7,0.4,1.1v26c0,3-0.5,5.8-1.4,8.3c-1,2.5-2.3,4.6-4.1,6.4c-1.8,1.8-4,3.1-6.5,4.1
			c-2.5,1-5.3,1.4-8.4,1.4c-3.1,0-5.9-0.5-8.4-1.4c-2.5-1-4.7-2.3-6.5-4.1c-1.8-1.8-3.2-3.9-4.2-6.4c-1-2.5-1.5-5.2-1.5-8.3V55z"/>
		<path class="st0" d="M613.9,100.4h-9.6c-0.4,0-0.8-0.1-1.1-0.4c-0.3-0.3-0.5-0.7-0.5-1.1v-44c0-0.4,0.1-0.8,0.5-1.1
			c0.3-0.3,0.7-0.4,1.1-0.4h20c2.5,0,4.8,0.4,6.9,1.3c2.1,0.8,3.9,2,5.4,3.5c1.5,1.5,2.6,3.3,3.5,5.3c0.8,2.1,1.3,4.3,1.3,6.8
			c0,1.4-0.2,2.7-0.5,4.1c-0.3,1.3-0.8,2.6-1.4,3.8c-0.6,1.2-1.3,2.3-2.1,3.2c-0.8,1-1.7,1.8-2.8,2.4c-0.3,0.3-0.6,0.6-0.7,0.9
			c-0.1,0.4,0,0.7,0.2,1.1c1.6,2.1,3.3,4.3,5.1,6.6c1.8,2.3,3.4,4.3,4.8,6.2c0.3,0.3,0.3,0.7,0.2,1.1c-0.1,0.4-0.4,0.6-0.8,0.6h-12
			c-0.4,0-0.9-0.1-1.4-0.4c-0.5-0.2-0.9-0.5-1.1-0.9c-1.4-1.8-2.7-3.6-4.1-5.5c-1.3-1.8-2.7-3.7-4-5.6c-0.3-0.3-0.6-0.6-1.1-0.9
			c-0.5-0.2-0.9-0.4-1.3-0.4H617c-0.4,0-0.8,0.2-1.1,0.5c-0.3,0.3-0.4,0.7-0.4,1.1v10.4c0,0.4-0.2,0.8-0.5,1.1
			C614.7,100.3,614.4,100.4,613.9,100.4z M617,75.1h6.8c0.5,0,1-0.1,1.6-0.3c0.6-0.2,1.1-0.5,1.5-0.9c0.5-0.4,0.9-0.9,1.2-1.5
			c0.3-0.6,0.4-1.3,0.4-2.1c0-0.4-0.1-0.9-0.2-1.5c-0.1-0.6-0.4-1.1-0.8-1.7c-0.4-0.5-0.9-1-1.5-1.3c-0.6-0.4-1.4-0.5-2.3-0.5H617
			c-0.4,0-0.8,0.2-1.1,0.5c-0.3,0.3-0.4,0.7-0.4,1.1v6.8c0,0.4,0.1,0.8,0.4,1.1C616.2,74.9,616.6,75.1,617,75.1z"/>
		<path class="st0" d="M661.6,66.7v2.7c0,0.4,0.1,0.8,0.4,1.1c0.3,0.3,0.7,0.4,1.1,0.4h17.4c0.4,0,0.8,0.2,1.1,0.4
			c0.3,0.3,0.5,0.7,0.5,1.1v8.9c0,0.4-0.2,0.8-0.5,1.1c-0.3,0.3-0.7,0.4-1.1,0.4h-17.4c-0.4,0-0.8,0.2-1.1,0.4
			c-0.3,0.3-0.4,0.7-0.4,1.1v2.4c0,0.4,0.1,0.8,0.4,1.1c0.3,0.3,0.7,0.4,1.1,0.4h20c0.4,0,0.8,0.2,1.1,0.4c0.3,0.3,0.4,0.7,0.4,1.1
			v8.9c0,0.4-0.2,0.8-0.4,1.1c-0.3,0.3-0.7,0.4-1.1,0.4h-32.7c-0.4,0-0.8-0.1-1.1-0.4c-0.3-0.3-0.4-0.7-0.4-1.1v-44
			c0-0.4,0.1-0.8,0.4-1.1c0.3-0.3,0.7-0.4,1.1-0.4h32.7c0.4,0,0.8,0.2,1.1,0.4c0.3,0.3,0.4,0.7,0.4,1.1v8.7c0,0.4-0.2,0.8-0.4,1.1
			c-0.3,0.3-0.7,0.4-1.1,0.4h-20c-0.4,0-0.8,0.2-1.1,0.5C661.8,65.9,661.6,66.3,661.6,66.7z"/>
		<path class="st0" d="M748.3,65.2h-9c-0.4,0-0.8,0.2-1.1,0.5c-0.3,0.3-0.5,0.7-0.5,1.1v32.1c0,0.4-0.1,0.8-0.4,1.1
			c-0.3,0.3-0.7,0.4-1.1,0.4h-9.6c-0.4,0-0.8-0.1-1.1-0.4c-0.3-0.3-0.5-0.7-0.5-1.1V66.7c0-0.4-0.1-0.8-0.4-1.1
			c-0.3-0.3-0.7-0.5-1.1-0.5h-9.1c-0.4,0-0.8-0.1-1.1-0.4c-0.3-0.3-0.5-0.7-0.5-1.1v-8.7c0-0.4,0.2-0.8,0.5-1.1
			c0.3-0.3,0.7-0.4,1.1-0.4h33.9c0.5,0,0.8,0.2,1.1,0.4c0.3,0.3,0.4,0.7,0.4,1.1v8.7c0,0.4-0.1,0.8-0.4,1.1
			C749.1,65,748.8,65.2,748.3,65.2z"/>
		<path class="st0" d="M766,100.4h-9.6c-0.4,0-0.8-0.1-1.1-0.4c-0.3-0.3-0.5-0.7-0.5-1.1v-44c0-0.4,0.1-0.8,0.5-1.1
			c0.3-0.3,0.7-0.4,1.1-0.4h20c2.5,0,4.8,0.4,6.9,1.3c2.1,0.8,3.9,2,5.4,3.5c1.5,1.5,2.6,3.3,3.5,5.3c0.8,2.1,1.3,4.3,1.3,6.8
			c0,1.4-0.2,2.7-0.5,4.1c-0.3,1.3-0.8,2.6-1.4,3.8c-0.6,1.2-1.3,2.3-2.1,3.2c-0.8,1-1.7,1.8-2.8,2.4c-0.3,0.3-0.6,0.6-0.7,0.9
			c-0.1,0.4,0,0.7,0.2,1.1c1.6,2.1,3.3,4.3,5.1,6.6c1.8,2.3,3.4,4.3,4.8,6.2c0.3,0.3,0.3,0.7,0.2,1.1c-0.1,0.4-0.4,0.6-0.8,0.6h-12
			c-0.4,0-0.9-0.1-1.4-0.4c-0.5-0.2-0.9-0.5-1.1-0.9c-1.4-1.8-2.7-3.6-4.1-5.5c-1.3-1.8-2.7-3.7-4-5.6c-0.3-0.3-0.6-0.6-1.1-0.9
			c-0.5-0.2-0.9-0.4-1.3-0.4h-1.4c-0.4,0-0.8,0.2-1.1,0.5c-0.3,0.3-0.4,0.7-0.4,1.1v10.4c0,0.4-0.2,0.8-0.5,1.1
			C766.8,100.3,766.5,100.4,766,100.4z M769.1,75.1h6.8c0.5,0,1-0.1,1.6-0.3c0.6-0.2,1.1-0.5,1.5-0.9c0.5-0.4,0.9-0.9,1.2-1.5
			c0.3-0.6,0.4-1.3,0.4-2.1c0-0.4-0.1-0.9-0.2-1.5c-0.1-0.6-0.4-1.1-0.8-1.7c-0.4-0.5-0.9-1-1.5-1.3c-0.6-0.4-1.4-0.5-2.3-0.5h-6.8
			c-0.4,0-0.8,0.2-1.1,0.5c-0.3,0.3-0.4,0.7-0.4,1.1v6.8c0,0.4,0.1,0.8,0.4,1.1C768.3,74.9,768.7,75.1,769.1,75.1z"/>
		<path class="st0" d="M815.9,54.9c0.2-0.4,0.5-0.7,0.9-1c0.4-0.3,0.8-0.4,1.3-0.4h9c0.4,0,0.8,0.1,1.3,0.4c0.4,0.3,0.7,0.6,0.9,1
			L848,98.5c0.2,0.4,0.1,0.8-0.1,1.2c-0.2,0.4-0.7,0.6-1.4,0.6h-11c-0.5,0-0.9-0.1-1.3-0.4c-0.4-0.3-0.7-0.6-0.9-1l-1.7-3.9
			c-0.2-0.4-0.5-0.7-0.9-1c-0.4-0.3-0.8-0.4-1.3-0.4h-13.6c-0.5,0-0.9,0.1-1.3,0.4c-0.4,0.3-0.7,0.6-0.9,1l-1.8,3.9
			c-0.2,0.4-0.5,0.7-0.9,1c-0.4,0.3-0.8,0.4-1.3,0.4h-11.1c-0.2,0-0.4,0-0.7-0.1c-0.2-0.1-0.4-0.2-0.6-0.4c-0.2-0.2-0.2-0.4-0.3-0.6
			s0-0.6,0.2-0.9L815.9,54.9z M819.7,82.8h5.7c0.4,0,0.7-0.1,0.9-0.4c0.2-0.3,0.2-0.6,0-1c-0.4-1.1-0.9-2.3-1.5-3.8
			c-0.6-1.4-1.2-2.8-1.7-4c-0.2-0.4-0.4-0.6-0.6-0.6c-0.2,0-0.4,0.2-0.6,0.6l-3.2,7.8c-0.2,0.4-0.2,0.7,0,1
			C818.9,82.7,819.2,82.8,819.7,82.8z"/>
		<path class="st0" d="M862.4,99L843,55.2c-0.2-0.5-0.2-0.9,0-1.3c0.2-0.4,0.6-0.6,1.1-0.6h10.5c0.4,0,0.8,0.1,1.3,0.4
			c0.4,0.3,0.7,0.6,0.9,1l11.3,25.8c0.2,0.4,0.5,0.6,0.8,0.6c0.3,0,0.6-0.2,0.8-0.6L881,54.8c0.2-0.4,0.5-0.7,0.9-1
			c0.4-0.3,0.8-0.4,1.3-0.4h10.7c0.5,0,0.8,0.2,1,0.5c0.2,0.4,0.2,0.7,0.1,1.1l-19.6,44c-0.2,0.4-0.5,0.7-0.9,1
			c-0.4,0.3-0.8,0.4-1.3,0.4h-8.5c-0.4,0-0.8-0.1-1.3-0.4C863,99.7,862.6,99.4,862.4,99z"/>
		<path class="st0" d="M912.7,66.7v2.7c0,0.4,0.2,0.8,0.4,1.1c0.3,0.3,0.7,0.4,1.1,0.4h17.4c0.4,0,0.8,0.2,1.1,0.4
			c0.3,0.3,0.5,0.7,0.5,1.1v8.9c0,0.4-0.2,0.8-0.5,1.1c-0.3,0.3-0.7,0.4-1.1,0.4h-17.4c-0.4,0-0.8,0.2-1.1,0.4
			c-0.3,0.3-0.4,0.7-0.4,1.1v2.4c0,0.4,0.2,0.8,0.4,1.1c0.3,0.3,0.7,0.4,1.1,0.4h20c0.4,0,0.8,0.2,1.1,0.4c0.3,0.3,0.4,0.7,0.4,1.1
			v8.9c0,0.4-0.2,0.8-0.4,1.1c-0.3,0.3-0.7,0.4-1.1,0.4h-32.7c-0.4,0-0.8-0.1-1.1-0.4c-0.3-0.3-0.4-0.7-0.4-1.1v-44
			c0-0.4,0.1-0.8,0.4-1.1c0.3-0.3,0.7-0.4,1.1-0.4h32.7c0.4,0,0.8,0.2,1.1,0.4c0.3,0.3,0.4,0.7,0.4,1.1v8.7c0,0.4-0.2,0.8-0.4,1.1
			c-0.3,0.3-0.7,0.4-1.1,0.4h-20c-0.4,0-0.8,0.2-1.1,0.5C912.9,65.9,912.7,66.3,912.7,66.7z"/>
		<path class="st0" d="M979.1,90.1v8.7c0,0.4-0.2,0.8-0.4,1.1c-0.3,0.3-0.7,0.4-1.1,0.4h-32.1c-0.5,0-0.8-0.1-1.1-0.4
			c-0.3-0.3-0.4-0.7-0.4-1.1v-44c0-0.4,0.1-0.8,0.4-1.1c0.3-0.3,0.7-0.4,1.1-0.4h9.6c0.4,0,0.8,0.2,1.1,0.4c0.3,0.3,0.4,0.7,0.4,1.1
			V87c0,0.4,0.1,0.8,0.4,1.1c0.3,0.3,0.7,0.4,1.1,0.4h19.3c0.4,0,0.8,0.2,1.1,0.5C978.9,89.3,979.1,89.7,979.1,90.1z"/>
	</g>
	<g>
		<path class="st0" d="M274.8,164.1v-33.9h-12v-2.9H290v2.9h-12v33.9H274.8z"/>
		<path class="st0" d="M318,164.1l-10.3-15.2h-8.1v15.2h-3.1v-36.7h13.7c6.3,0,11.2,4,11.2,10.7c0,6.7-4.7,10.4-10.2,10.6l10.6,15.4
			H318z M318.1,138.1c0-4.6-3.3-7.9-8.2-7.9h-10.3V146h10.3C314.8,146,318.1,142.7,318.1,138.1z"/>
		<path class="st0" d="M355.8,164.1l-3.6-9h-19.4l-3.6,9h-3.6l15-36.7h3.9l15,36.7H355.8z M342.4,130.7l-8.6,21.5h17.4L342.4,130.7z
			"/>
		<path class="st0" d="M364.9,164.1v-36.7h11.7c11.4,0,18.6,8.3,18.6,18.4c0,10.2-7.2,18.3-18.6,18.3H364.9z M391.9,145.8
			c0-8.6-5.5-15.5-15.3-15.5H368v31h8.6C386.3,161.2,391.9,154.4,391.9,145.8z"/>
		<path class="st0" d="M403,164.1v-36.7h23.3v2.9h-20.2v13.6h19.8v2.9h-19.8v14.5h20.2v2.9H403z"/>
		<path class="st0" d="M474.9,164.1l-3.6-9h-19.4l-3.6,9h-3.6l15-36.7h3.9l15,36.7H474.9z M461.5,130.7l-8.6,21.5h17.4L461.5,130.7z
			"/>
		<path class="st0" d="M481,158.9l2-2.4c2.4,2.8,6.2,5.3,11.5,5.3c7.5,0,9.7-4.2,9.7-7.3c0-10.8-22-5.2-22-18c0-6,5.4-9.8,12.1-9.8
			c5.5,0,9.6,1.9,12.4,5.2l-2.1,2.3c-2.6-3.2-6.4-4.6-10.5-4.6c-4.9,0-8.6,2.8-8.6,6.8c0,9.4,22,4.2,22,18c0,4.7-3.1,10.4-13.1,10.4
			C488.4,164.8,483.8,162.3,481,158.9z"/>
		<path class="st0" d="M513,158.9l2-2.4c2.4,2.8,6.2,5.3,11.5,5.3c7.5,0,9.7-4.2,9.7-7.3c0-10.8-22-5.2-22-18c0-6,5.4-9.8,12.1-9.8
			c5.5,0,9.6,1.9,12.4,5.2l-2.1,2.3c-2.6-3.2-6.4-4.6-10.5-4.6c-4.9,0-8.6,2.8-8.6,6.8c0,9.4,22,4.2,22,18c0,4.7-3.1,10.4-13.1,10.4
			C520.4,164.8,515.8,162.3,513,158.9z"/>
		<path class="st0" d="M545.6,145.8c0-10.7,7.1-19,17.8-19c10.7,0,17.8,8.3,17.8,19c0,10.7-7.1,19-17.8,19
			C552.7,164.8,545.6,156.5,545.6,145.8z M578,145.8c0-9.4-5.7-16.1-14.5-16.1c-8.9,0-14.5,6.8-14.5,16.1c0,9.3,5.6,16.1,14.5,16.1
			C572.3,161.9,578,155,578,145.8z"/>
		<path class="st0" d="M587.7,145.8c0-11.3,8.2-19,18.6-19c5.8,0,10.2,2.6,13.4,6.5l-2.6,1.7c-2.3-3.2-6.3-5.3-10.7-5.3
			c-8.6,0-15.3,6.6-15.3,16.1c0,9.5,6.7,16.1,15.3,16.1c4.4,0,8.4-2.1,10.7-5.3l2.6,1.7c-3.2,4-7.5,6.6-13.4,6.6
			C595.9,164.8,587.7,157.1,587.7,145.8z"/>
		<path class="st0" d="M626.1,164.1v-36.7h3.1v36.7H626.1z"/>
		<path class="st0" d="M665,164.1l-3.6-9h-19.4l-3.6,9h-3.6l15-36.7h3.9l15,36.7H665z M651.6,130.7l-8.6,21.5h17.4L651.6,130.7z"/>
		<path class="st0" d="M679.6,164.1v-33.9h-12v-2.9h27.2v2.9h-12v33.9H679.6z"/>
		<path class="st0" d="M701.3,164.1v-36.7h3.1v36.7H701.3z"/>
		<path class="st0" d="M712.2,145.8c0-10.7,7.1-19,17.8-19c10.7,0,17.8,8.3,17.8,19c0,10.7-7.1,19-17.8,19
			C719.2,164.8,712.2,156.5,712.2,145.8z M744.6,145.8c0-9.4-5.7-16.1-14.5-16.1c-8.9,0-14.5,6.8-14.5,16.1
			c0,9.3,5.6,16.1,14.5,16.1C738.9,161.9,744.6,155,744.6,145.8z"/>
		<path class="st0" d="M781.9,164.1l-23.1-31.6v31.6h-3.1v-36.7h3.2l23,31.1v-31.1h3.1v36.7H781.9z"/>
	</g>
	<g>
		<polygon class="st1" points="166,88.3 166,89.3 164.6,90.5 164.4,91.3 167,91.5 167.3,92 169,92.1 169.7,91.5 169.7,90.4 
			168.3,89.4 168.3,87.8 165.1,85.7 165.2,84.5 167.8,84.6 167.7,83.4 165.9,82.6 163.8,82.8 163.3,84 163.4,86.4 		"/>
		<path class="st1" d="M67.8,65.2l-0.9,0c-0.4,0.4-0.9,0.8-1.3,1.3l2.8,0.1L67.8,65.2z"/>
		<path class="st1" d="M77.2,164.4l0.4-4.9l-2.2-2.9l0.9-4.9l-1.3-0.4v-10.7c0,0-3.6-2.8-3.9-2.8c-0.2,0-1.9-0.5-1.9-0.5l-0.4-2
			l-4.7-5.9l0.5-2.1l0.2-3.5l3.3-2.3l-0.5-3.9l-4.8-0.4l-3.7-4.3l-2.7-0.7l-1.7-0.3l0.2-1.6l-2.2-0.3v0.9l-5.5-1.4l-0.6-0.9
			c-0.1,1.5-0.2,3-0.2,4.5c0,26.1,15.1,48.6,37.1,59.4l-3.4-3L77.2,164.4z"/>
		<path class="st1" d="M177.6,101.8l-2.2-0.4l-4.2-0.2l-3.7-2.1l-0.3-2.2h-1.8c0,0,0,3.1,0,3.2c0,0.2,8,3.9,8,3.9l2.3,0.3l0,1.7
			l-2.1,1.4l-6.8,5l-3.3,0.2l-1.6-1.6l-0.2-2.6l-7-8.5l-0.5,0.6l7,13.2l1.7,0.9l6.7-1.4l1.2,0.6l-6.4,9.2l-5.8,5.6l1.3,2.3l0.6,6.2
			l-3,4.1l-1.4,1.7v2.5l-2.1,0.5l-1.7,3l-5.3,5.5H140V150l-2.4-3.2v-5l-1.8-1.8l-0.2-2.1l2.3-4.4l-4.4-7.8l0.5-5.3l-4-0.4l-1.5-1.5
			H126l-1.3,1.2H120l-0.2,0.4h-2.6l-6-6.8l0-5.3l1-0.4l0.4-2h-1.4l-0.6-2.1l6.9-5v-3.5l3.4-1.9l1.4,0.1h2.8l2.2-1.2l7-0.5v3.6
			l5.5,1.4l1.1,0.8h1v-2l3.2-0.3l3,2.3h5l1.8-1.6v-2.6l-1.5-1.1l-4.9,0.1l-1.6-1.8l-0.3-2.9l-1.7,0.9l-0.9,3.5l-2.4-2.6l-0.1-2.4
			l-2.3-2l-0.9-0.9h-2.7l0.9,2.4l3.3,1.8l0.6,0.6l-0.7,0.4l0,1.9l-1.6,0.7l-1.4-0.3l-0.8-1.2l2.2,0.1l0.6-0.8l-4.9-3.3l-0.4-1.4
			l-2,1.8l-2-0.4l-3.1,4l-0.6,1.6l-2,0.2l-2.9,0l-1.7-0.8l-0.5-3.4l0.6-1.6l2.9-0.6l3.2,0.6l0.4-1.8l-1.4-0.3l0.5-2.8l3.2-0.5
			l2.3-3.2l2.3-0.4l2.1,0.3h0.8l-0.4-3l-2.6,1l-0.9-2.2l-1.5-0.2l-0.3-1.5l1.2-1.3l2.9-1.1l1.6-2.9l4.4-2.2l7.8-0.2l6.4,3l-1.1,0.9
			l-5.3,0.2l0.2,1.1l5.1,0.1l2.1-1.6l0.7-1.9l1-0.3l0.6,1.7l1.6-0.7c-12-11.9-28.5-19.3-46.7-19.3c-16.2,0-31.1,5.9-42.6,15.6
			l0.2,0.3l2.8,0.2l1.7-1.6l1.3,0.6l-2.3,2.2c0,0-3.2,0.1-3,0.1c0.2,0,0.3,2.2,0.3,2.2l3.8-0.1l0.4-1l2.7-0.2l0.3-1.6l-1.6-0.3
			l0.5-1.4l1.2-0.4l4.2,0.2L80,63.9l0.4,1.6l2.4,0.4L82.6,63l2.3-1.2l4.1-0.5l5.9,2.6v2.2l1.9,0.5l-0.9,1.8h-2.7l-0.8,2L86.3,69
			l4.8-2.5l-1.8-1.5l-4.1,0.5l-0.4,0.4l0,0l-0.1,0.1l-1.2,1.2l-2,0.2l0.2,1l0.7,0.3l0,0.3l-1.6,0.2L80.6,70l-1.5,0.1l-0.3-1.8
			l-2.7,0.8l-5.6,3.3l0.6,2.3l1.6,1l3.1,0.4v3.5l1.4-0.2l1.3-2.8l3.3-1v-4.3l1.8-1.4l4.5,1.1l-0.3,2.8h1.2l3.3-1.6l0.2,3.7l2.4,1.5
			l-0.1,2.2l-2.3,0.8l0.2,0.7l2.8,1.3l-0.1,1.5l-0.8,0.1c0,0,0,0,0,0l-3.5-1.1L91,81.6h0l1-0.7v-1l-1.1-0.3l-0.3,0.9l-1.9,0.3
			l-0.2-0.1v0.1L87.8,81l-0.5-1.1l-0.6-0.3h-1.4l-0.6,0.5v1.1l1.2,0.4l1.2,0.2l-0.3,0.1l-1.1,1.2l-0.5-0.6l-1-0.3l-2.8,2.6l0.4,0.3
			l-4.1,2.3l-3.9,4l-0.3,1.8l-3.9,2.5l-1.9,1.9l0.2,3.8l-2.7-1.2l0-2.3L58,98l-3.8,1.9l-1.7,3.1l-0.7,2.4l1.1,2.4l3,0.4l4.8-3.2
			l0.4,1.6l-1.5,2.8l3.6,0.6l0.4,5.6l5,0.8l3.2-3.7l3.9,0.8l1.4,1.9l3.7-0.2l0.1-1.1l2,1l2.3,3.6l4,0l1.5,2.6l0.2,3.1l4.4,1.7l5.5,0
			l1.6,2.7l2.4,0.8l-0.5,2.2l-2.7,3.4l-0.8,7.5l-2.4,1.9l-3.6-0.1l-1.2,2.1l0.9,3.9l-3.9,5l-1.2,2.3l-3.7,1.8l-2.4,0.4l-0.1,1
			l1.7,0.5l-0.2,1.1l-1.5,1.5l0.9,1.2l1.8,0l-0.1,1.4l-0.5,1.4l-0.2,1.1l2.7,2.3l-0.4,1.2l-3.5-0.1c8.6,4.1,18.3,6.5,28.5,6.5
			c36.5,0,66.1-29.6,66.1-66.1C178.6,109.2,178.2,105.5,177.6,101.8z M122.3,74.3l0.6-0.9l2.1-0.4l0.5,2.5l1.1,1.8l0.7,0.8l1.3,0.5
			l-1.2,1.5l-2.4,0.2h-1.8l0.2-2.2l1.5-0.3l-0.1-1l-1.4-0.9l-1-0.7V74.3z M118.9,78.2l1.2-2l1.7-0.4l1.2,0.5l-0.1,1.4l-2.6,1.8h-1.5
			V78.2z M84.9,85.9L83.6,86l0.1-0.9l0.6-0.7L85,85L84.9,85.9z M89.5,84.3l-0.9,0.1l-0.2,0.9l-0.7,0.4l-1.1,0.1
			c0-0.3-0.1-0.5-0.1-0.5h-0.4v-0.9h1.8l0.4-1l0.7,0l0.8,0.2L89.5,84.3z M167.7,141.8l-3.2,4.6l-1.6,2.6l-1.8-1.7v-2.8l1.3-1.5
			l0.9-1.4l-1.1-1.4v-2.5l3.2,0.4l1.9-3.7h1.9L167.7,141.8z"/>
		<polygon class="st1" points="154.2,84.9 153.4,84.4 152.9,85.1 150.8,85.4 149.8,85.7 148.9,86.7 148.9,89.5 150.1,89.3 
			154.1,89.5 156.9,89.5 156.7,88.3 154.4,87.4 		"/>
		<polygon class="st1" points="144.6,67.8 144.6,66.5 143.6,66.5 139,69.7 139,74.8 136.3,76.2 136.6,77.1 140.9,77.1 143.4,73.4 
			143.2,71.8 141.5,70.9 141.5,69.7 		"/>
		<path class="st1" d="M222.4,113l-14.7-8.5l-8.8-5.1c-5.8-37.8-35.8-67.5-73.7-73.1l-5.7-9.8L111.1,2l-8.5,14.7l-6,10.3
			c-7.9,1.4-15.5,4-22.5,7.4c-25.4,12.2-44,36.3-48.5,65l-9,5.2L2,113l14.7,8.5l9,5.2c4.5,28.8,23.1,52.9,48.5,65
			c7.2,3.5,15,6.1,23.2,7.5l5.2,9.1l8.5,14.7l8.5-14.7l5-8.6c38.2-5.3,68.5-35.1,74.4-73.1l8.8-5.1L222.4,113z M131.5,187.1
			c-6.1,1.5-12.4,2.4-19,2.4c-42.2,0-76.4-34.2-76.4-76.5c0-42.2,34.2-76.4,76.4-76.4c6.6,0,12.9,0.8,19,2.4
			c32.8,8.7,57,38.6,57,74.1C188.4,148.5,164.2,178.4,131.5,187.1z"/>
	</g>
</g>
</svg>
