<?xml version="1.0" encoding="utf-8"?>
<!-- Generator: Adobe Illustrator 23.0.5, SVG Export Plug-In . SVG Version: 6.00 Build 0)  -->
<svg version="1.1" id="Capa_1" xmlns="http://www.w3.org/2000/svg" xmlns:xlink="http://www.w3.org/1999/xlink" x="0px" y="0px"
	 viewBox="0 0 512 512" style="enable-background:new 0 0 512 512;" xml:space="preserve">
<style type="text/css">
	.st0{stroke:#000000;stroke-width:6;stroke-miterlimit:10;}
</style>
<path d="M-779.17,264.88c8.23-8.71,16.55-17.34,24.63-26.19c2.21-2.42,4.18-5.3,5.44-8.31c20.64-49.26,41.17-98.56,61.64-147.89
	c0.88-2.11,1.34-4.56,1.35-6.85c0.09-25.87,0.06-51.75,0.06-77.62c0-0.87-0.01-1.75,0-2.62c0.04-4.69,1.65-7.16,4.97-7.59
	c3.22-0.43,5.21,1.29,6.75,6.14c1.2,0,2.54,0,3.88,0c18.62,0,37.25-0.01,55.87,0c6.66,0,8.11,1.47,8.12,8.16
	c0.01,13,0.02,26-0.01,39c-0.01,5.83-1.78,7.57-7.65,7.58c-18.62,0.02-37.25,0.01-55.87,0.01c-1.46,0-2.93,0-4.6,0
	c0,8.75,0,17.06,0,25.94c1.7,0,3.28,0,4.85,0c40.87,0,81.75-0.01,122.62,0.02c1.73,0,3.55,0.01,5.18,0.5
	c2.57,0.76,3.75,2.8,3.6,5.48c-0.15,2.7-1.61,4.47-4.23,5.01c-1.57,0.32-3.23,0.24-4.85,0.24c-39.75,0.01-79.5,0.01-119.24,0.01
	c-1.49,0-2.97,0-4.97,0c0.51,1.52,0.81,2.67,1.27,3.76c25.04,60.13,50.1,120.25,75.08,180.4c1.07,2.57,2.37,3.49,5.21,3.49
	c55.37-0.09,110.74-0.07,166.12-0.07c1.23,0,2.46,0,4.13,0c-0.51-1.47-0.81-2.5-1.22-3.49c-25.09-60.24-50.22-120.47-75.24-180.74
	c-1.1-2.65-2.47-3.5-5.24-3.41c-6.12,0.2-12.25,0.1-18.37,0.05c-4.44-0.04-7.02-2.1-7.07-5.49c-0.05-3.4,2.6-5.69,6.9-5.72
	c8.25-0.06,16.5,0.04,24.75-0.04c3.6-0.04,5.76,1.56,7.14,4.86c30.63,73.61,61.31,147.21,91.96,220.81c2.4,5.77,0.08,9.18-6.23,9.34
	c-0.62,0.02-1.25,0-1.87,0c-121.87,0-243.74-0.01-365.6,0.04c-3.63,0-6.95-0.27-9.23-3.54c0-1.5,0-3,0-4.5
	c3.17-7.21,6.4-14.41,9.43-21.68c0.26-0.64-0.6-1.99-1.26-2.72c-2.66-2.93-5.44-5.75-8.17-8.6
	C-779.17,267.38-779.17,266.13-779.17,264.88z M-595.58,298.37c-26.35-63.23-52.35-125.62-78.35-188.02
	c-0.87,6.56-0.81,12.88-0.9,19.21c-0.05,3.61-2.2,5.91-5.33,6.03c-3.19,0.13-5.72-2.32-5.83-6c-0.15-4.62-0.04-9.24-0.05-13.87
	c0-1.72,0-3.44,0-5.17c-0.28,0-0.56,0-0.83,0.01c-13.86,33.27-27.71,66.54-41.57,99.81c0.37,0.26,0.75,0.51,1.12,0.77
	c0.84-1.08,1.58-2.25,2.52-3.23c12.97-13.53,25.96-27.04,38.96-40.53c4.83-5.01,8.84-4.22,11.55,2.27
	c4.05,9.66,8.06,19.34,12.09,29.01c13.33,32.01,26.64,64.03,40.04,96.01c0.59,1.41,1.97,3.49,3.05,3.54
	C-611.55,298.51-603.96,298.37-595.58,298.37z M-632.9,298.26c-15.88-38.1-31.52-75.63-47.46-113.88
	c-16,38.42-31.64,75.97-47.43,113.88C-695.88,298.26-664.78,298.26-632.9,298.26z M-409.27,298.38c-1.53-3.76-3.03-6.89-4.07-10.16
	c-0.92-2.9-2.58-3.59-5.51-3.58c-55.33,0.09-110.65,0.07-165.98,0.08c-1.2,0-2.4,0.12-4.13,0.22c1.39,3.35,2.86,6.22,3.77,9.26
	c0.98,3.26,2.65,4.29,6.15,4.28c55.08-0.13,110.15-0.09,165.23-0.09C-412.48,298.38-411.15,298.38-409.27,298.38z M-764.88,265.79
	c9.2,9.24,18.14,18.21,27.08,27.19c13.17-31.62,26.51-63.65,39.85-95.68c-0.24-0.13-0.47-0.26-0.71-0.39
	C-720.95,220.11-743.26,243.31-764.88,265.79z M-617.9,5.43c-19.13,0-37.81,0-56.56,0c0,10.74,0,21.25,0,31.78
	c19.01,0,37.69,0,56.56,0C-617.9,26.54-617.9,16.11-617.9,5.43z M-764.95,298.03c5.09,0,9.58,0,13.56,0
	c-3.12-3.15-6.3-6.37-9.55-9.65C-762.19,291.38-763.51,294.56-764.95,298.03z"/>
<path class="st0" d="M10.51,394.77c10.57-10.93,21.26-21.75,31.63-32.86c2.84-3.04,5.37-6.65,6.99-10.43
	c26.51-61.8,52.88-123.66,79.17-185.55c1.13-2.65,1.72-5.72,1.73-8.59c0.12-32.46,0.08-64.93,0.08-97.39c0-1.1-0.01-2.2,0-3.29
	c0.05-5.88,2.12-8.98,6.38-9.53c4.14-0.53,6.7,1.62,8.67,7.7c1.54,0,3.26,0,4.99,0c23.92,0,47.84-0.01,71.75,0.01
	c8.55,0.01,10.42,1.84,10.43,10.24c0.02,16.31,0.03,32.62-0.01,48.93c-0.02,7.31-2.28,9.5-9.82,9.51
	c-23.92,0.03-47.84,0.01-71.75,0.01c-1.88,0-3.76,0-5.91,0c0,10.98,0,21.41,0,32.54c2.19,0,4.21,0,6.23,0
	c52.49,0,104.98-0.01,157.47,0.02c2.23,0,4.56,0.01,6.65,0.62c3.3,0.96,4.81,3.51,4.62,6.87c-0.19,3.39-2.07,5.61-5.43,6.28
	c-2.02,0.4-4.15,0.3-6.23,0.3c-51.05,0.01-102.09,0.01-153.14,0.01c-1.91,0-3.82,0-6.39,0c0.65,1.9,1.04,3.35,1.63,4.71
	c32.15,75.44,64.34,150.87,96.43,226.35c1.37,3.22,3.04,4.38,6.69,4.38c71.11-0.12,142.22-0.09,213.34-0.09c1.58,0,3.16,0,5.31,0
	c-0.65-1.84-1.03-3.14-1.56-4.38c-32.23-75.58-64.49-151.15-96.62-226.78c-1.41-3.32-3.17-4.39-6.74-4.27
	c-7.86,0.26-15.73,0.12-23.59,0.06c-5.7-0.05-9.01-2.63-9.08-6.89c-0.07-4.27,3.34-7.14,8.86-7.18c10.59-0.07,21.19,0.05,31.78-0.06
	c4.63-0.05,7.4,1.95,9.16,6.1c39.34,92.36,78.74,184.7,118.1,277.06c3.09,7.24,0.1,11.52-8.01,11.72c-0.8,0.02-1.61,0.01-2.41,0.01
	c-156.51,0-313.02-0.01-469.53,0.05c-4.66,0-8.92-0.34-11.85-4.44c0-1.88,0-3.76,0-5.65c4.08-9.05,8.22-18.08,12.11-27.2
	c0.34-0.8-0.77-2.49-1.61-3.41c-3.41-3.68-6.98-7.21-10.49-10.79C10.51,397.9,10.51,396.33,10.51,394.77z M246.28,436.78
	c-33.84-79.33-67.23-157.62-100.62-235.91c-1.12,8.23-1.04,16.16-1.15,24.1c-0.06,4.53-2.82,7.41-6.84,7.57
	c-4.09,0.16-7.34-2.91-7.49-7.53c-0.19-5.79-0.06-11.6-0.06-17.4c0-2.16,0-4.32,0-6.48c-0.36,0-0.71,0-1.07,0.01
	c-17.79,41.74-35.59,83.48-53.38,125.23c0.48,0.32,0.96,0.64,1.44,0.96c1.07-1.35,2.03-2.82,3.24-4.05
	c16.66-16.97,33.33-33.93,50.03-50.86c6.21-6.29,11.35-5.3,14.84,2.84c5.2,12.13,10.36,24.27,15.53,36.4
	c17.12,40.17,34.21,80.34,51.42,120.47c0.76,1.77,2.53,4.38,3.91,4.44C225.77,436.96,235.51,436.78,246.28,436.78z M198.35,436.65
	c-20.39-47.8-40.48-94.9-60.94-142.88c-20.55,48.21-40.64,95.32-60.91,142.88C117.47,436.65,157.41,436.65,198.35,436.65z
	 M485.55,436.8c-1.97-4.72-3.89-8.64-5.23-12.75c-1.19-3.64-3.32-4.5-7.07-4.5c-71.05,0.12-142.11,0.08-213.16,0.1
	c-1.54,0-3.09,0.16-5.3,0.27c1.79,4.2,3.67,7.8,4.85,11.62c1.26,4.09,3.4,5.38,7.9,5.37c70.73-0.17,141.46-0.12,212.2-0.12
	C481.43,436.8,483.13,436.8,485.55,436.8z M28.86,395.91c11.82,11.59,23.29,22.85,34.78,34.11c16.91-39.67,34.05-79.86,51.18-120.06
	c-0.3-0.16-0.6-0.33-0.91-0.49C85.27,338.59,56.62,367.7,28.86,395.91z M217.62,69.23c-24.56,0-48.55,0-72.64,0
	c0,13.48,0,26.66,0,39.87c24.41,0,48.4,0,72.64,0C217.62,95.71,217.62,82.63,217.62,69.23z M28.76,436.36c6.54,0,12.31,0,17.42,0
	c-4-3.95-8.09-7.99-12.27-12.11C32.31,428.02,30.62,432,28.76,436.36z"/>
</svg>
