<?xml version="1.0" encoding="utf-8"?>
<!-- Generator: Adobe Illustrator 23.0.5, SVG Export Plug-In . SVG Version: 6.00 Build 0)  -->
<svg version="1.1" id="Capa_1" xmlns="http://www.w3.org/2000/svg" xmlns:xlink="http://www.w3.org/1999/xlink" x="0px" y="0px"
	 viewBox="0 0 512 512" style="enable-background:new 0 0 512 512;" xml:space="preserve">
<style type="text/css">
	.st0{fill:#FFFFFF;}
	.st1{fill:#6D556D;}
</style>
<path class="st0" d="M355.68,255.2c0,40.24-0.01,80.48,0.01,120.73c0,9.5-0.22,19.01,0.23,28.49c0.49,10.14,5.99,17.36,15.12,21.44
	c8.91,3.98,17.62,2.88,25.47-2.93c6.98-5.17,10.32-12.29,10.31-20.99c-0.01-97.73,0-195.46-0.01-293.19c0-0.75-0.01-1.5-0.07-2.25
	c-0.86-10.24-5.97-17.69-15.28-21.81c-9.05-4-17.86-2.84-25.78,3.17c-7.46,5.65-10.08,13.46-10.06,22.64
	C355.73,158.72,355.68,206.96,355.68,255.2z"/>
<path class="st0" d="M323.63,293.65c0-2.75,0-5.5,0-8.25c-0.03-34,0.2-68-0.2-102c-0.22-18.34-20.9-29.92-37.06-21.24
	c-10.08,5.42-13.95,14.17-13.94,25.39c0.11,70.75,0.06,141.5,0.06,212.25c0,1.5,0.04,3,0.11,4.5c0.73,15.19,16.06,26.69,30.86,23.15
	c12.64-3.02,20.13-12.75,20.15-26.56C323.66,365.15,323.63,329.4,323.63,293.65z"/>
<path class="st0" d="M240.29,332.26c0-24.11,0.22-48.23-0.09-72.33c-0.16-12.72-11.24-23.28-23.94-23.8
	c-14.9-0.61-26.8,10.44-26.91,25.48c-0.18,23.86-0.07,47.73-0.07,71.59c0.01,23.49-0.13,46.98,0.12,70.46
	c0.14,13.5,11.75,24.35,25.36,24.39c13.53,0.04,25.26-10.51,25.44-23.83C240.52,380.23,240.29,356.24,240.29,332.26z"/>
<path class="st0" d="M106.05,346.32c2.08-3.91,3.65-8.21,6.34-11.64c6.32-8.08,17.45-10.92,27.4-7.67
	c9.67,3.16,16.99,12.03,17.17,22.28c0.33,18.47,0.36,36.96-0.02,55.43c-0.24,11.65-10.06,21.57-21.76,23.15
	c-11.87,1.61-23.78-5.59-27.57-16.65c-0.48-1.4-1.03-2.77-1.55-4.15C106.05,386.82,106.05,366.57,106.05,346.32z M144.36,377.17
	c0-8.37,0.04-16.75-0.01-25.12c-0.04-7.71-5.09-13.19-12.2-13.36c-7.44-0.18-13.13,4.97-13.23,12.76
	c-0.22,16.87-0.19,33.75-0.02,50.62c0.08,7.7,5.99,13.38,13.02,13.17c7.15-0.21,12.4-5.95,12.44-13.69
	C144.39,393.42,144.36,385.3,144.36,377.17z"/>
<path class="st0" d="M355.68,255.2c0-48.24,0.06-96.48-0.05-144.72c-0.02-9.19,2.61-16.99,10.06-22.64c7.92-6,16.73-7.17,25.78-3.17
	c9.31,4.12,14.42,11.58,15.28,21.81c0.06,0.75,0.07,1.5,0.07,2.25c0,97.73,0,195.46,0.01,293.19c0,8.7-3.33,15.83-10.31,20.99
	c-7.85,5.81-16.57,6.91-25.47,2.93c-9.13-4.08-14.64-11.29-15.12-21.44c-0.45-9.48-0.23-18.99-0.23-28.49
	C355.67,335.69,355.68,295.44,355.68,255.2z M368.52,254.97c0,48.1,0,96.2,0,144.3c0,1.37-0.06,2.76,0.05,4.12
	c0.44,5.27,4.14,9.81,9.08,11.22c5.16,1.47,10.86-0.04,13.57-4.54c1.65-2.73,2.73-6.27,2.74-9.45
	c0.14-96.95,0.12-193.89,0.08-290.84c0-1.85-0.2-3.78-0.76-5.53c-1.53-4.79-4.82-7.79-9.87-8.58c-8.59-1.34-14.89,4.51-14.89,13.88
	C368.51,158.02,368.52,206.5,368.52,254.97z"/>
<path class="st0" d="M323.63,293.65c0,35.75,0.03,71.5-0.02,107.25c-0.02,13.81-7.51,23.55-20.15,26.56
	c-14.81,3.53-30.13-7.96-30.86-23.15c-0.07-1.5-0.11-3-0.11-4.5c-0.01-70.75,0.05-141.5-0.06-212.25
	c-0.02-11.23,3.85-19.98,13.94-25.39c16.16-8.68,36.85,2.89,37.06,21.24c0.4,33.99,0.17,68,0.2,102
	C323.63,288.15,323.63,290.9,323.63,293.65z M310.83,293.84c0-35.24,0-70.48,0-105.72c0-1.37,0.06-2.76-0.07-4.12
	c-0.64-6.84-6.01-11.78-12.71-11.77c-6.7,0-12.05,4.95-12.7,11.79c-0.11,1.12-0.06,2.25-0.06,3.37c0,70.85,0,141.7,0,212.55
	c0,1.12-0.05,2.26,0.06,3.37c0.83,8.43,8.83,13.76,16.77,11.19c5.46-1.77,8.71-6.71,8.71-13.45
	C310.84,365.32,310.83,329.58,310.83,293.84z"/>
<path class="st0" d="M240.29,332.26c0,23.99,0.23,47.98-0.09,71.96c-0.18,13.32-11.91,23.86-25.44,23.83
	c-13.6-0.04-25.21-10.89-25.36-24.39c-0.25-23.49-0.11-46.97-0.12-70.46c-0.01-23.86-0.11-47.73,0.07-71.59
	c0.11-15.04,12.01-26.09,26.91-25.48c12.7,0.52,23.78,11.07,23.94,23.8C240.51,284.03,240.29,308.14,240.29,332.26z M227.59,332.28
	c0-3.37,0-6.75,0-10.12c0-20,0.06-40-0.03-59.99c-0.04-9.02-7.81-14.99-16.19-12.66c-6,1.67-9.33,6.63-9.33,14.11
	c-0.01,40.25-0.01,80.49-0.01,120.74c0,5.87-0.09,11.75,0.03,17.62c0.13,6.11,3.65,10.95,8.89,12.58
	c8.57,2.67,16.59-3.48,16.61-12.91C227.63,378.52,227.59,355.4,227.59,332.28z"/>
<path class="st1" d="M144.36,377.17c0,8.12,0.03,16.25-0.01,24.37c-0.04,7.75-5.28,13.48-12.44,13.69
	c-7.03,0.21-12.93-5.47-13.02-13.17c-0.18-16.87-0.2-33.75,0.02-50.62c0.1-7.8,5.79-12.95,13.23-12.76
	c7.12,0.18,12.16,5.65,12.2,13.36C144.39,360.42,144.36,368.8,144.36,377.17z"/>
<path class="st0" d="M368.52,254.97c0-48.47-0.01-96.95,0.01-145.42c0-9.37,6.3-15.22,14.89-13.88c5.05,0.79,8.34,3.79,9.87,8.58
	c0.56,1.75,0.76,3.68,0.76,5.53c0.03,96.95,0.06,193.89-0.08,290.84c0,3.18-1.09,6.72-2.74,9.45c-2.72,4.5-8.41,6.01-13.57,4.54
	c-4.94-1.41-8.64-5.95-9.08-11.22c-0.11-1.37-0.05-2.75-0.05-4.12C368.52,351.17,368.52,303.07,368.52,254.97z"/>
<path class="st0" d="M310.83,293.84c0,35.74,0.01,71.48-0.01,107.21c0,6.74-3.25,11.69-8.71,13.45
	c-7.94,2.57-15.94-2.76-16.77-11.19c-0.11-1.12-0.06-2.25-0.06-3.37c0-70.85,0-141.7,0-212.55c0-1.12-0.04-2.26,0.06-3.37
	c0.65-6.83,6-11.78,12.7-11.79c6.7,0,12.07,4.94,12.71,11.77c0.13,1.36,0.07,2.75,0.07,4.12
	C310.83,223.37,310.83,258.6,310.83,293.84z"/>
<path class="st1" d="M227.59,332.28c0,23.12,0.04,46.25-0.02,69.37c-0.02,9.43-8.04,15.58-16.61,12.91
	c-5.23-1.63-8.76-6.47-8.89-12.58c-0.13-5.87-0.03-11.75-0.03-17.62c0-40.25-0.01-80.49,0.01-120.74c0-7.48,3.33-12.44,9.33-14.11
	c8.38-2.33,16.15,3.64,16.19,12.66c0.09,20,0.03,40,0.03,59.99C227.59,325.53,227.59,328.9,227.59,332.28z"/>
</svg>
