<svg id="Layer_1" data-name="Layer 1" xmlns="http://www.w3.org/2000/svg" viewBox="0 0 346.9 159.83"><defs><style>.cls-1{fill:#233e94;}.cls-2{fill:#00a3d6;}.cls-3{fill:#159bd7;}</style></defs><path class="cls-1" d="M39.07,214.07V178.89H63.85v8.55H49.58v4.77H61.84v8.34H49.58v5H64.35v8.54Z" transform="translate(-39.07 -54.84)"/><path class="cls-1" d="M79,196.08,67.68,178.89H80.29l5.18,8.5,5.27-8.5h12.37L91.55,196.23l11.86,17.84H90.69l-5.37-8.64L80,214.07H67.58Z" transform="translate(-39.07 -54.84)"/><path class="cls-1" d="M107.56,214.07V178.89H126a13.94,13.94,0,0,1,9.7,3.32,11.09,11.09,0,0,1,3.72,8.65,12,12,0,0,1-3.77,9,13.21,13.21,0,0,1-9.65,3.62h-7.89v10.6Zm17-26.73h-6.49V195h6.49c2.66,0,4.17-1.51,4.17-4.12C128.72,188.69,127.16,187.34,124.55,187.34Z" transform="translate(-39.07 -54.84)"/><path class="cls-1" d="M143.43,214.07V178.89H168.2v8.55H153.93v4.77h12.26v8.34H153.93v5H168.7v8.54Z" transform="translate(-39.07 -54.84)"/><path class="cls-1" d="M175.26,214.07V178.89h16.23c5.63,0,10.1,1.56,13.37,4.63s5,7.18,5,12.36c0,5.43-1.65,9.8-5,13.17s-7.79,5-13.32,5Zm16.08-26.63h-5.58v18.09h5.58c4.67,0,7.79-3.82,7.79-9.65C199.13,190.81,196,187.44,191.34,187.44Z" transform="translate(-39.07 -54.84)"/><path class="cls-1" d="M214.4,214.07V178.89h10.5v35.18Z" transform="translate(-39.07 -54.84)"/><path class="cls-1" d="M259,178.89v8.65H249.4v26.53H238.85V187.54H229.3v-8.65Z" transform="translate(-39.07 -54.84)"/><path class="cls-1" d="M263.72,214.07V178.89h10.5v35.18Z" transform="translate(-39.07 -54.84)"/><path class="cls-1" d="M309.94,209.7c-3.31,3.32-7.73,5-13.21,5s-9.85-1.65-13.12-5-4.87-7.74-4.87-13.22,1.65-9.8,5-13.16,7.69-5,13.12-5c5.58,0,9.95,1.66,13.21,5S315,191,315,196.48,313.31,206.33,309.94,209.7Zm-13.11-3.57c4.77,0,7.44-3.47,7.44-9.65s-2.67-9.65-7.44-9.65-7.39,3.62-7.39,9.65S292.15,206.13,296.83,206.13Z" transform="translate(-39.07 -54.84)"/><path class="cls-1" d="M318.9,214.07V178.89H330l10.8,16.94V178.89h10v35.18h-9l-12.91-20.2v20.2Z" transform="translate(-39.07 -54.84)"/><path class="cls-1" d="M359.39,211.61a10.13,10.13,0,0,1-4.32-8.44l10.6-1.06c0,3.07,1.71,4.67,5.08,4.67,2.81,0,4.37-1.1,4.37-2.91,0-1.56-.8-2.16-3.17-2.56l-4.47-.76c-7.29-1.2-11.36-5.07-11.36-11a9.92,9.92,0,0,1,4-8c2.67-2.16,6.24-3.27,10.61-3.27q6.26,0,10.1,2.87a10.11,10.11,0,0,1,4.32,7.43l-10.6,1.16a3.72,3.72,0,0,0-4.12-3.57c-2.42,0-3.72.91-3.72,2.46,0,1.36.75,2,2.91,2.42l6.23,1.1C382.46,193.37,386,197,386,202.61a10.77,10.77,0,0,1-4.17,8.7c-2.76,2.26-6.38,3.36-10.95,3.36C366,214.67,362.2,213.67,359.39,211.61Z" transform="translate(-39.07 -54.84)"/><polygon class="cls-2" points="175.64 99.21 175.64 99.21 175.64 99.2 175.64 99.21"/><polygon class="cls-2" points="175.64 99.21 175.65 99.21 175.64 99.2 175.64 99.21"/><polygon class="cls-2" points="117.73 99.21 117.73 99.21 117.73 99.2 117.73 99.21"/><polygon class="cls-2" points="156.5 99.21 156.51 99.21 156.51 99.2 156.5 99.21"/><polygon class="cls-3" points="71.74 0 107.85 99.21 128.48 42.52 113 0 71.74 0"/><polygon class="cls-3" points="143.96 0 128.48 42.52 149.12 99.21 185.22 0 143.96 0"/><polygon class="cls-1" points="107.85 99.21 149.12 99.21 128.48 42.52 107.85 99.21"/><polygon class="cls-3" points="275.17 99.21 239.05 0 218.42 56.69 233.9 99.21 275.17 99.21"/><polygon class="cls-3" points="202.94 99.21 218.42 56.69 197.79 0 161.68 99.21 202.94 99.21"/><polygon class="cls-1" points="239.05 0 197.79 0 218.42 56.69 239.05 0"/></svg>