<?xml version="1.0" encoding="utf-8"?>
<!-- Generator: Adobe Illustrator 21.0.0, SVG Export Plug-In . SVG Version: 6.00 Build 0)  -->
<svg version="1.1" xmlns="http://www.w3.org/2000/svg" xmlns:xlink="http://www.w3.org/1999/xlink" x="0px" y="0px"
	 viewBox="0 0 600 600" style="enable-background:new 0 0 600 600;" xml:space="preserve">
<style type="text/css">
	.st0{fill:#6F6F6F;}
	.st1{fill:#434343;}
</style>
<g id="Capa_1">
	<g>
		<polygon class="st0" points="91.5,226.7 91.5,226.7 82.6,217.8 91.5,226.7 		"/>
		<polygon class="st0" points="82.6,217.8 73.6,208.9 73.6,208.9 73.6,208.9 		"/>
		<polygon class="st0" points="82.6,217.8 73.6,208.9 73.6,208.9 14.1,235.6 31.9,253.4 59.2,241.1 47,268.4 64.8,286.2 91.5,226.7 
			91.5,226.7 		"/>
		<polygon class="st0" points="128.7,153.9 128.7,153.9 128.7,153.9 		"/>
		<polygon class="st0" points="146.5,171.7 146.5,171.7 137.6,162.8 		"/>
		<polygon class="st0" points="146.5,171.7 146.5,171.7 146.5,171.7 		"/>
		<polygon class="st0" points="128.7,153.9 137.6,162.8 128.7,153.9 		"/>
		<polygon class="st0" points="188.2,127.3 160.9,139.5 173.1,112.2 155.3,94.4 128.7,153.9 128.7,153.9 137.6,162.8 146.5,171.7 
			146.5,171.7 206,145.1 		"/>
		<polygon class="st0" points="146.5,208.9 146.5,208.9 146.5,208.9 		"/>
		<polygon class="st0" points="128.7,226.7 128.7,226.7 128.7,226.7 		"/>
		<polygon class="st0" points="206,235.6 146.5,208.9 146.5,208.9 128.7,226.7 128.7,226.7 155.3,286.2 173.1,268.4 160.9,241.1 
			188.2,253.4 		"/>
		<polygon class="st0" points="73.6,171.7 73.6,171.7 73.6,171.7 		"/>
		<polygon class="st0" points="91.5,153.9 91.5,153.9 91.5,153.9 		"/>
		<polygon class="st0" points="91.5,153.9 64.8,94.4 47,112.2 59.2,139.5 31.9,127.3 14.1,145.1 73.6,171.7 73.6,171.7 91.5,153.9 
					"/>
		<polygon class="st0" points="122.7,229.2 122.7,229.2 122.7,229.2 		"/>
		<polygon class="st0" points="97.5,229.2 74.2,290.1 99.4,290.1 110.1,262.2 106.3,252.3 		"/>
		<polygon class="st0" points="113.8,252.3 110.1,262.2 120.7,290.1 145.9,290.1 122.7,229.2 		"/>
		<polygon class="st0" points="97.5,229.2 97.5,229.2 97.5,229.2 		"/>
		<polygon class="st1" points="122.7,229.2 122.7,229.2 97.5,229.2 97.5,229.2 106.3,252.3 110.1,262.2 113.8,252.3 		"/>
		<polygon class="st0" points="122.7,151.4 145.9,90.5 120.7,90.5 110.1,118.5 113.8,128.3 		"/>
		<polygon class="st0" points="97.5,151.4 97.5,151.4 97.5,151.4 		"/>
		<polygon class="st0" points="106.3,128.3 110.1,118.5 99.4,90.5 74.2,90.5 97.5,151.4 		"/>
		<polygon class="st0" points="122.7,151.4 122.7,151.4 122.7,151.4 		"/>
		<polygon class="st1" points="97.5,151.4 97.5,151.4 122.7,151.4 122.7,151.4 113.8,128.3 110.1,118.5 106.3,128.3 		"/>
		<polygon class="st0" points="149,202.9 209.9,226.2 209.9,201 182,190.3 172.1,194.1 		"/>
		<polygon class="st0" points="149,177.7 149,177.7 149,177.7 		"/>
		<polygon class="st0" points="209.9,154.5 149,177.7 172.1,186.6 182,190.3 209.9,179.7 		"/>
		<polygon class="st0" points="149,202.9 149,202.9 149,202.9 		"/>
		<polygon class="st1" points="149,177.7 149,177.7 149,202.9 149,202.9 172.1,194.1 182,190.3 172.1,186.6 		"/>
		<polygon class="st0" points="71.2,202.9 71.2,202.9 71.2,202.9 		"/>
		<polygon class="st0" points="71.2,177.7 10.2,154.5 10.2,179.7 38.2,190.3 48,186.6 		"/>
		<polygon class="st0" points="71.2,177.7 71.2,177.7 71.2,177.7 		"/>
		<polygon class="st0" points="48,194.1 38.2,190.3 10.2,201 10.2,226.2 71.2,202.9 		"/>
		<polygon class="st1" points="71.2,202.9 71.2,202.9 71.2,177.7 71.2,177.7 48,186.6 38.2,190.3 48,194.1 		"/>
		<path class="st1" d="M262.9,184.4l-17.5-40.5l14.2,0.1l10.2,26.8l10.3-26.9l13.6,0.1l-17.7,40.6L262.9,184.4z"/>
		<path class="st1" d="M301.2,177.9l-2.5,6.2h-12.2l17-40.3l14.1-0.1l17.3,40.3l-13.5,0.1L319,178L301.2,177.9z M315.8,169.9
			l-5.6-13.7l-5.5,13.7H315.8z"/>
		<path class="st1" d="M338.3,184.2v-40.3l12.6,0.1L351,174l21.5,0.1v10.2L338.3,184.2z"/>
		<path class="st1" d="M424.9,240.9l-0.1-40.3l36.5,0l0,10l-24.1-0.4l-0.1,6.2l18.3,0l0,8.8l-18.4,0.1v6.5l24.4-0.2l-0.1,9.4
			L424.9,240.9z"/>
		<path class="st1" d="M419.5,184.2l0-40.4l12.3,0l18.3,22.8l0.1-22.8l11.4,0v40.4h-12.3l-18.4-23.1l0,23.1H419.5z"/>
		<path class="st1" d="M496.1,169l11.8,0.9c-0.8,4.6-3.3,9.2-7,11.8c-3.6,2.6-8.3,3.6-13.7,3.6c-6.6,0-11.7-1.6-15.7-5.5
			c-3.9-3.9-5.9-9-5.9-15.4c0-6.3,2-11.5,6-15.4c4-3.9,9.3-5.9,15.9-5.9c5.4,0,9.9,1.4,13.5,4.1c3.7,2.7,6,6.4,6.9,11l-12,1.4
			c-1-3.5-4.9-6.6-8.3-6.6c-5.1,0-9.4,5-9.4,11.3c0,6.3,4,10.9,9.2,10.9C490.9,175.2,495.4,171.9,496.1,169z"/>
		<path class="st1" d="M513.6,184.3v-40.5h13.2v40.5H513.6z"/>
		<path class="st1" d="M545.3,178.1l-2.5,6.2l-12.2,0l17.3-40.4l13.9,0l17.3,40.3h-13.4l-2.5-6.2L545.3,178.1z M559.9,169.8
			l-5.6-13.5l-5.6,13.5L559.9,169.8z"/>
		<path class="st1" d="M286.8,200.7v10.6l-14.2,0.1l-0.1,29.5l-12.3,0l0-29.5l-14.4-0.1v-10.6H286.8z"/>
		<path class="st1" d="M332.4,240.8h-13.6l-8.9-12.6l-6.2,0l0,12.5H291l0-40.1h23.5c11,0,16.4,6.6,16.5,14
			c0.1,6.5-4.2,10.3-8.5,12.5C324.5,227.8,332.4,240.8,332.4,240.8z M311.9,210.4h-8.3v9.1h8.4c4,0,6.1-1.6,6.1-4.8
			C318.1,211.9,315.9,210.4,311.9,210.4z"/>
		<path class="st1" d="M348.6,234.8l-2.5,6.2H334l17-40l14.1-0.1l17.3,40.1l-13.5,0.1l-2.3-6.2L348.6,234.8z M363.2,226.8l-5.6-13.6
			l-5.5,13.6H363.2z"/>
		<path class="st1" d="M392.1,240.8l-17.5-39.9l14.2,0.1l10.2,26.3l10.3-26.5l13.6,0.1l-17.7,39.9L392.1,240.8z"/>
		<path class="st1" d="M467.5,241.3v-40.3l12.6,0.1l0.1,30.1l21.5,0.1v10.2L467.5,241.3z"/>
		<path class="st1" d="M377.7,184.3l-0.1-40.3l36.5,0l0,10l-24.1-0.4l-0.1,6.2l18.3,0l0,8.8l-18.4,0.1v6.5l24.4-0.2l-0.1,9.4
			L377.7,184.3z"/>
	</g>
</g>
<g id="Layer_2">
</g>
</svg>
