<svg id="Capa_1" data-name="Capa 1" xmlns="http://www.w3.org/2000/svg" viewBox="0 0 568.79 199.6"><defs><style>.cls-1{fill:#0095ce;}.cls-2{fill:#134a9e;}</style></defs><title>logo horizontal Web</title><polygon class="cls-1" points="81.24 136.2 81.25 136.19 72.34 127.29 81.25 136.19 81.24 136.2"/><polygon class="cls-1" points="72.34 127.29 63.44 118.39 63.43 118.4 63.44 118.39 72.34 127.29"/><polygon class="cls-1" points="72.34 127.29 63.44 118.39 63.43 118.4 3.89 145.03 21.7 162.83 49 150.62 36.79 177.9 54.6 195.7 81.24 136.2 81.25 136.19 72.34 127.29"/><polygon class="cls-1" points="118.46 63.4 118.46 63.4 118.46 63.4 118.46 63.4"/><polygon class="cls-1" points="136.27 81.2 136.27 81.2 127.36 72.3 136.27 81.2"/><polygon class="cls-1" points="136.27 81.2 136.27 81.2 136.27 81.2 136.27 81.2"/><polygon class="cls-1" points="118.46 63.4 127.36 72.3 118.46 63.4 118.46 63.4"/><polygon class="cls-1" points="178 36.77 150.7 48.98 162.92 21.69 145.11 3.89 118.46 63.4 118.46 63.4 127.36 72.3 136.27 81.2 136.27 81.2 195.81 54.57 178 36.77"/><polygon class="cls-1" points="136.27 118.39 136.27 118.39 136.27 118.4 136.27 118.39"/><polygon class="cls-1" points="118.46 136.19 118.46 136.2 118.46 136.19 118.46 136.19"/><polygon class="cls-1" points="195.81 145.03 136.27 118.4 136.27 118.39 118.46 136.19 118.46 136.2 145.11 195.7 162.92 177.9 150.7 150.62 178 162.83 195.81 145.03"/><polygon class="cls-1" points="63.44 81.2 63.44 81.2 63.43 81.2 63.44 81.2"/><polygon class="cls-1" points="81.25 63.4 81.24 63.4 81.25 63.4 81.25 63.4"/><polygon class="cls-1" points="81.24 63.4 54.6 3.89 36.79 21.69 49 48.98 21.7 36.77 3.89 54.57 63.43 81.2 63.44 81.2 81.25 63.4 81.24 63.4"/><polygon class="cls-1" points="112.45 138.68 112.44 138.68 112.45 138.69 112.45 138.68"/><polygon class="cls-1" points="87.26 138.69 64 199.59 89.19 199.59 99.85 171.67 96.08 161.8 87.26 138.69"/><polygon class="cls-1" points="103.62 161.8 99.85 171.67 110.52 199.59 135.71 199.59 112.45 138.69 103.62 161.8"/><polygon class="cls-1" points="87.26 138.68 87.26 138.69 87.26 138.68 87.26 138.68"/><polygon class="cls-2" points="112.45 138.69 112.44 138.68 87.26 138.68 87.26 138.69 96.08 161.8 99.85 171.67 103.62 161.8 112.45 138.69"/><polygon class="cls-1" points="112.45 60.91 135.71 0 110.52 0 99.85 27.93 103.62 37.8 112.45 60.91"/><polygon class="cls-1" points="87.26 60.91 87.26 60.91 87.26 60.91 87.26 60.91"/><polygon class="cls-1" points="96.08 37.8 99.85 27.93 89.19 0 64 0 87.26 60.91 96.08 37.8"/><polygon class="cls-1" points="112.45 60.91 112.45 60.91 112.44 60.91 112.45 60.91"/><polygon class="cls-2" points="87.26 60.91 87.26 60.91 112.44 60.91 112.45 60.91 103.62 37.8 99.85 27.93 96.08 37.8 87.26 60.91"/><polygon class="cls-1" points="138.76 112.39 199.71 135.63 199.71 110.46 171.76 99.8 161.89 103.56 138.76 112.39"/><polygon class="cls-1" points="138.76 87.21 138.76 87.21 138.76 87.21 138.76 87.21"/><polygon class="cls-1" points="199.71 63.96 138.76 87.21 161.89 96.03 171.76 99.8 199.71 89.14 199.71 63.96"/><polygon class="cls-1" points="138.76 112.39 138.76 112.39 138.76 112.38 138.76 112.39"/><polygon class="cls-2" points="138.76 87.21 138.76 87.21 138.76 112.38 138.76 112.39 161.89 103.56 171.76 99.8 161.89 96.03 138.76 87.21"/><polygon class="cls-1" points="60.95 112.39 60.95 112.38 60.94 112.39 60.95 112.39"/><polygon class="cls-1" points="60.94 87.21 0 63.96 0 89.14 27.94 99.8 37.82 96.03 60.94 87.21"/><polygon class="cls-1" points="60.95 87.21 60.94 87.21 60.95 87.21 60.95 87.21"/><polygon class="cls-1" points="37.82 103.56 27.94 99.8 0 110.46 0 135.63 60.94 112.39 37.82 103.56"/><polygon class="cls-2" points="60.94 112.39 60.95 112.38 60.95 87.21 60.94 87.21 37.82 96.03 27.94 99.8 37.82 103.56 60.94 112.39"/><path class="cls-2" d="M252.72,93.85,235.26,53.36l14.21.06,10.16,26.76L270,53.3l13.58.06L265.89,93.93Z"/><path class="cls-2" d="M291,87.42l-2.45,6.22H276.29l17-40.28,14.09-.06,17.29,40.34-13.52.11-2.34-6.28Zm14.61-8L300,65.68l-5.53,13.69Z"/><path class="cls-2" d="M328.1,93.7V53.36l12.61.06.11,30.07,21.45.06V93.76Z"/><path class="cls-2" d="M414.7,150.42l-.06-40.32,36.48,0,0,10L427,119.72l-.08,6.24,18.29,0,0,8.79-18.41.08v6.47l24.42-.15-.08,9.36Z"/><path class="cls-2" d="M409.26,93.7V53.33l12.3,0,18.26,22.77.08-22.79,11.39,0V93.7H439L420.63,70.61l0,23.09Z"/><path class="cls-2" d="M485.92,78.46l11.75.91c-.84,4.64-3.3,9.25-7,11.83s-8.26,3.58-13.7,3.58c-6.58,0-11.74-1.64-15.69-5.51s-5.87-9-5.87-15.45,2-11.45,6-15.39,9.34-5.87,15.92-5.87A22.07,22.07,0,0,1,491,56.62a17.41,17.41,0,0,1,6.88,11l-12,1.39c-1-3.47-4.92-6.56-8.27-6.56-5.09,0-9.36,5-9.36,11.3s4,10.9,9.19,10.9C480.66,84.68,485.21,81.34,485.92,78.46Z"/><path class="cls-2" d="M503.35,93.77V53.3h13.18V93.77Z"/><path class="cls-2" d="M535.11,87.54l-2.55,6.18-12.17,0,17.26-40.37,13.87,0L568.79,93.7H555.42l-2.54-6.19Zm14.63-8.22-5.63-13.5-5.59,13.47Z"/><path class="cls-2" d="M276.54,110.21V120.8l-14.17.06-.07,29.46-12.27,0,0-29.48-14.38-.06V110.21Z"/><path class="cls-2" d="M322.15,150.3H308.53l-8.9-12.55-6.25,0,0,12.5H280.77V110.13h23.53c11,0,16.41,6.56,16.52,14,.1,6.47-4.24,10.32-8.46,12.53C314.24,137.29,322.15,150.3,322.15,150.3Zm-20.48-30.43h-8.31V129h8.39c4,0,6.14-1.59,6.14-4.78C307.88,121.39,305.71,119.87,301.66,119.87Z"/><path class="cls-2" d="M338.43,144.24,336,150.42H323.76l17-40,14.09-.06,17.29,40.06-13.52.11-2.34-6.23Zm14.61-8-5.59-13.6-5.53,13.6Z"/><path class="cls-2" d="M381.91,150.28l-17.46-39.87,14.21.06,10.16,26.35,10.33-26.46,13.58.06-17.65,39.94Z"/><path class="cls-2" d="M457.28,150.76V110.42l12.61.06.11,30.07,21.45.06v10.21Z"/><path class="cls-2" d="M367.53,93.81l-.06-40.32,36.48,0,0,10-24.12-.36-.08,6.24,18.29,0,0,8.79-18.41.08v6.47L404,84.49,404,93.85Z"/></svg>