<svg id="Capa_1" enable-background="new 0 0 511.993 511.993" height="512" viewBox="0 0 511.993 511.993" width="512" xmlns="http://www.w3.org/2000/svg"><g><g><path d="m256.517 405.604c1.447-1.043 3.178-2.43 4.448-3.699l47.507-47.508c5.011-5.01 7.771-11.672 7.771-18.757s-2.76-13.747-7.77-18.757l-9.53-9.531c-5.27-5.27-12.224-7.848-19.146-7.747.002-.134.01-.268.01-.403 0-7.085-2.76-13.747-7.77-18.757l-9.53-9.53c-5.151-5.15-12.13-7.822-19.163-7.732.098-7.012-2.56-13.991-7.744-19.175l-9.529-9.53c-5.01-5.01-11.672-7.77-18.757-7.77-.131 0-.26.008-.39.01.002-.13.01-.26.01-.39 0-7.085-2.76-13.747-7.77-18.757l-9.53-9.53c-5.01-5.01-11.671-7.77-18.757-7.77-7.085 0-13.747 2.759-18.757 7.77l-65.215 65.214c-2.929 2.929-2.929 7.678 0 10.606 1.465 1.464 3.385 2.197 5.304 2.197s3.839-.732 5.304-2.197l7.012-7.012c1.294 6.311 4.397 12.112 9.057 16.773 5.468 5.468 12.505 8.795 20.095 9.567-4.754 11.972-2.299 26.167 7.373 35.839 5.074 5.074 11.395 8.154 17.984 9.258-5.672 9.455-6.296 21.204-1.617 31.203-10.257 5.318-19.025 13.436-25.284 23.786-2.145 3.544-1.009 8.155 2.535 10.299 3.542 2.142 8.155 1.008 10.299-2.536 8.973-14.834 24.666-23.691 41.979-23.691h9.354c4.143 0 7.5-3.358 7.5-7.5v-58.027c0-16.714 13.598-30.312 30.312-30.312 2.607 0 4.776 2.025 4.962 4.62l4.253 100.45c.417 9.865-1.642 19.773-5.954 28.653l-14.963 30.818c-3.614 7.445-9.896 13.086-17.685 15.884l-18.005 6.468c-8.327 2.991-17.036 4.507-25.883 4.507h-47.345c-4.143 0-7.5 3.358-7.5 7.5 0 4.125 3.33 7.47 7.449 7.497l-11.283 11.283c-2.929 2.929-2.929 7.678 0 10.606 1.465 1.464 3.385 2.197 5.304 2.197s3.839-.732 5.304-2.197l21.887-21.887h26.185c10.58 0 20.994-1.813 30.953-5.39l18.005-6.468c11.5-4.131 20.771-12.458 26.108-23.45l14.963-30.818c2.501-5.158 4.389-10.597 5.65-16.177zm8.289-106.401c0 3.075-1.197 5.967-3.37 8.143-.002.002-.005.004-.007.007l-6.186 6.186-1.191-28.129c-.002-.045-.004-.091-.007-.137-.037-.609-.107-1.209-.198-1.802l7.583 7.582c2.177 2.177 3.376 5.071 3.376 8.15zm-145.969-39.1c0-4.879 1.899-9.465 5.35-12.915l38.539-38.539c2.177-2.177 5.071-3.376 8.149-3.376 3.079 0 5.974 1.199 8.15 3.376l9.53 9.53c2.177 2.177 3.376 5.071 3.376 8.15 0 3.077-1.198 5.97-3.373 8.147-.001.001-.003.002-.004.004l-38.534 38.534c-.002.002-.003.003-.005.005-3.449 3.45-8.036 5.35-12.915 5.35-4.878 0-9.465-1.9-12.914-5.35-3.449-3.451-5.349-8.037-5.349-12.916zm68.106 102.246c-5.273 0-10.429.637-15.388 1.847-3.858-6.998-2.739-15.891 3.083-21.712l14.158-14.159v34.023h-1.853zm2.134-55.518-11.591 11.591c-.001.001-.002.001-.002.002-7.119 7.121-18.708 7.122-25.829 0-7.122-7.122-7.122-18.709 0-25.831l47.507-47.508c2.178-2.177 5.072-3.376 8.151-3.376 3.078 0 5.973 1.199 8.15 3.376l9.529 9.53c3.266 3.266 4.224 8.164 2.571 12.372-20.271 2.947-36.231 19.359-38.486 39.844zm108.788 36.959-39.662 39.663-2.099-49.568c.024-.023.049-.042.073-.065l15.858-15.859c4.495-4.495 11.808-4.495 16.301 0l9.53 9.53c2.177 2.177 3.376 5.072 3.376 8.15 0 3.077-1.199 5.971-3.377 8.149z"/><path d="m61.829 288.363c-15.099 15.457-24.653 34.922-27.633 56.293l-3.654 26.231-28.345 28.345c-2.929 2.929-2.929 7.678 0 10.606 1.465 1.465 3.384 2.197 5.304 2.197 1.919 0 3.839-.732 5.304-2.197l30.123-30.123c1.153-1.154 1.899-2.652 2.125-4.268l4.001-28.721c2.534-18.176 10.662-34.733 23.507-47.882 2.895-2.963 2.839-7.711-.124-10.606-2.966-2.895-7.713-2.838-10.608.125z"/><path d="m414.803 237.568c-8.772 4.175-18.524 6.167-28.225 5.754l-100.451-4.253c-2.594-.186-4.618-2.355-4.618-4.962 0-16.714 13.598-30.312 30.312-30.312h58.028c1.989 0 3.896-.79 5.304-2.197 1.406-1.406 2.196-3.314 2.196-5.303v-9.354c0-17.313 8.856-33.005 23.691-41.978 3.544-2.144 4.68-6.755 2.536-10.299-2.145-3.545-6.757-4.679-10.3-2.536-10.349 6.26-18.467 15.027-23.785 25.284-9.993-4.676-21.733-4.056-31.185 1.606-1.131-6.775-4.321-13.019-9.276-17.973-9.677-9.676-23.881-12.129-35.857-7.366-.753-7.345-3.932-14.486-9.548-20.102-4.661-4.661-10.462-7.764-16.773-9.058l31.271-31.27c13.056-13.056 30.317-21.649 48.604-24.198l28.721-4.002c1.616-.225 3.114-.971 4.269-2.125l30.122-30.123c2.929-2.929 2.929-7.678 0-10.606-2.93-2.929-7.678-2.929-10.607 0l-28.344 28.345-26.23 3.655c-21.499 2.996-41.792 13.099-57.142 28.448l-89.473 89.473c-5.949 5.948-8.729 14.482-7.435 22.83.573 3.704 3.767 6.353 7.402 6.353.381 0 .769-.029 1.157-.089 4.093-.634 6.897-4.467 6.263-8.56-.571-3.691.602-7.309 3.219-9.926l38.539-38.539c3.449-3.45 8.036-5.35 12.915-5.35s9.466 1.9 12.915 5.35c7.122 7.122 7.122 18.708 0 25.83 0 0 0 .001-.001.001l-38.533 38.534c-.002.002-.003.003-.005.005-2.694 2.695-6.546 3.882-10.307 3.17-4.071-.771-7.993 1.907-8.763 5.977-.769 4.07 1.907 7.993 5.978 8.762 1.647.311 3.302.464 4.945.464.129 0 .258-.008.386-.01-.002.131-.01.261-.01.393 0 7.085 2.76 13.747 7.77 18.757l9.53 9.53c5.108 5.108 11.911 7.769 18.781 7.768.132 0 .265-.011.397-.013-.085 7.033 2.591 14.014 7.729 19.151l9.529 9.53c5.01 5.01 11.672 7.77 18.757 7.77.131 0 .26-.008.39-.01-.002.13-.01.26-.01.39 0 7.085 2.76 13.747 7.77 18.757l9.53 9.53c5.01 5.01 11.671 7.769 18.757 7.769 7.085 0 13.747-2.759 18.757-7.77l47.508-47.508c1.375-1.375 2.625-2.868 3.736-4.453 5.376-1.219 10.62-3.026 15.608-5.4 3.74-1.78 5.329-6.255 3.55-9.995-1.778-3.737-6.254-5.324-9.994-3.546zm-50.607-66.012c-1.21 4.958-1.847 10.114-1.847 15.387v1.854h-34.023l14.158-14.158c5.819-5.822 14.713-6.943 21.712-3.083zm-109.581 53.436-9.53-9.53c-2.177-2.177-3.376-5.072-3.376-8.15s1.199-5.973 3.377-8.15l47.508-47.508c7.121-7.122 18.707-7.12 25.83 0 3.449 3.45 5.35 8.037 5.35 12.916 0 4.876-1.899 9.46-5.345 12.91l-11.076 11.076c-.165.165-.318.338-.464.514-20.513 2.231-36.954 18.205-39.901 38.498-4.211 1.658-9.094.703-12.373-2.576zm44.587 39.813c-3.078 0-5.973-1.199-8.15-3.376l-7.582-7.582c.593.09 1.192.161 1.801.198.046.002.092.005.138.007l28.13 1.191-6.186 6.186c-2.177 2.177-5.072 3.376-8.151 3.376zm44.587 33.061c-2.177 2.177-5.071 3.376-8.149 3.376-3.079 0-5.974-1.199-8.15-3.376l-9.53-9.53c-2.177-2.177-3.376-5.071-3.376-8.15 0-3.077 1.198-5.97 3.373-8.147.001-.001.003-.002.004-.004l15.86-15.86c.023-.023.042-.048.064-.071l49.568 2.099z"/><path d="m509.796 102.154c-2.93-2.929-7.678-2.93-10.607 0l-11.283 11.283c-.028-4.118-3.372-7.449-7.497-7.449-4.143 0-7.5 3.358-7.5 7.5v47.345c0 8.849-1.517 17.557-4.508 25.882l-6.467 18.005c-2.732 7.606-8.218 13.806-15.446 17.457-3.697 1.868-5.181 6.378-3.313 10.076 1.319 2.613 3.96 4.12 6.7 4.12 1.137 0 2.291-.259 3.375-.807 10.669-5.388 18.767-14.542 22.802-25.775l6.467-18.005c3.577-9.957 5.391-20.371 5.391-30.953v-26.185l21.888-21.887c2.927-2.929 2.927-7.678-.002-10.607z"/><path d="m360.648 344.877c-2.925-2.932-7.674-2.938-10.606-.012s-2.938 7.674-.013 10.607l19.165 19.209c1.465 1.468 3.387 2.203 5.31 2.203 1.916 0 3.833-.73 5.297-2.19 2.933-2.926 2.938-7.674.013-10.607z"/><path d="m339.162 362.641c-.713-4.08-4.598-6.809-8.678-6.099-4.081.712-6.812 4.597-6.1 8.678l4.145 23.748c.637 3.644 3.803 6.212 7.38 6.212.428 0 .862-.037 1.298-.113 4.081-.712 6.812-4.597 6.1-8.678z"/><path d="m394.111 323.388-23.748-4.145c-4.086-.714-7.966 2.019-8.679 6.099-.712 4.081 2.019 7.966 6.099 8.678l23.748 4.145c.437.076.871.113 1.299.113 3.576 0 6.743-2.568 7.38-6.212.711-4.081-2.019-7.966-6.099-8.678z"/><path d="m151.349 156.836c1.465 1.469 3.387 2.203 5.31 2.203 1.916 0 3.833-.73 5.297-2.19 2.933-2.926 2.938-7.674.013-10.606l-19.165-19.21c-2.925-2.932-7.674-2.939-10.606-.013-2.933 2.926-2.938 7.674-.013 10.606z"/><path d="m172.834 139.071c.637 3.644 3.803 6.212 7.38 6.212.428 0 .862-.037 1.298-.113 4.081-.712 6.812-4.597 6.1-8.678l-4.145-23.749c-.713-4.08-4.6-6.81-8.678-6.099-4.081.712-6.812 4.597-6.1 8.678z"/><path d="m117.886 178.324 23.748 4.146c.437.076.871.113 1.299.113 3.576 0 6.743-2.568 7.38-6.212.712-4.08-2.019-7.965-6.099-8.678l-23.748-4.146c-4.086-.713-7.966 2.019-8.679 6.099-.712 4.08 2.019 7.965 6.099 8.678z"/></g></g></svg>