<?xml version="1.0" standalone="no"?>
<!DOCTYPE svg PUBLIC "-//W3C//DTD SVG 20010904//EN"
 "http://www.w3.org/TR/2001/REC-SVG-20010904/DTD/svg10.dtd">
<svg version="1.0" xmlns="http://www.w3.org/2000/svg"
 width="279.000000pt" height="278.000000pt" viewBox="0 0 279.000000 278.000000"
 preserveAspectRatio="xMidYMid meet">

<g transform="translate(0.000000,278.000000) scale(0.100000,-0.100000)"
fill="#000000" stroke="none">
<path d="M1532 2190 c-44 -27 -72 -76 -72 -127 0 -39 -2 -43 -26 -43 -24 0
-25 -2 -22 -47 3 -40 6 -48 23 -48 19 0 20 -8 23 -122 l3 -123 54 0 55 0 0
124 0 123 37 -1 c35 -1 37 0 49 47 l12 47 -49 0 c-48 0 -49 1 -49 30 0 44 33
73 75 66 32 -6 33 -5 39 34 3 23 4 45 1 51 -11 18 -118 10 -153 -11z"/>
<path d="M763 2140 c-120 -72 -82 -227 66 -271 57 -17 76 -53 42 -80 -34 -28
-70 -24 -163 16 -16 6 -18 1 -18 -38 0 -72 32 -92 150 -92 50 0 73 5 101 22
47 29 74 88 66 144 -9 70 -32 92 -152 146 -50 22 -61 59 -20 69 26 6 75 1 106
-11 13 -5 18 2 23 30 4 20 9 42 12 50 14 36 -158 49 -213 15z"/>
<path d="M1111 2017 c-32 -10 -33 -12 -27 -51 4 -22 9 -42 11 -44 2 -2 18 1
36 7 42 14 82 14 97 -1 18 -18 14 -28 -10 -28 -13 0 -41 -5 -62 -11 -97 -27
-128 -119 -62 -185 28 -28 41 -34 78 -34 24 0 54 7 66 16 22 15 25 15 47 -6
l24 -22 40 32 40 33 -19 25 c-16 20 -20 40 -20 112 0 74 -3 91 -22 115 -40 51
-132 69 -217 42z m129 -216 c0 -23 -25 -51 -45 -51 -21 0 -35 31 -24 52 14 26
69 25 69 -1z"/>
<path d="M1768 2010 c-56 -30 -82 -73 -86 -147 -4 -53 -1 -69 22 -107 36 -62
95 -90 180 -84 79 5 96 18 96 73 l0 43 -41 -14 c-51 -18 -100 -10 -130 22
l-22 24 84 0 c81 0 87 1 113 29 24 25 27 35 22 64 -18 99 -140 148 -238 97z
m120 -82 c26 -26 13 -38 -38 -38 -34 0 -50 4 -50 13 0 21 22 37 50 37 14 0 31
-5 38 -12z"/>
<path d="M2020 1420 c0 -255 4 -277 59 -299 43 -18 61 -11 78 32 15 37 15 39
-6 53 -20 15 -21 22 -21 230 l0 214 -55 0 -55 0 0 -230z"/>
<path d="M448 1552 c-46 -15 -48 -17 -48 -54 0 -36 -2 -38 -30 -38 -29 0 -30
-2 -30 -45 0 -43 1 -45 30 -45 l30 0 0 -96 c0 -91 1 -97 28 -123 32 -32 88
-46 126 -31 22 8 26 16 26 50 0 37 -2 40 -29 40 -35 0 -41 13 -41 96 l0 64 44
0 c40 0 44 3 50 28 4 15 9 35 12 45 5 15 -2 17 -50 17 l-56 0 0 55 c0 30 -3
55 -7 54 -5 0 -29 -8 -55 -17z"/>
<path d="M865 1458 c-11 -6 -28 -20 -37 -32 l-18 -21 0 28 c0 26 -2 27 -55 27
l-55 0 0 -170 0 -171 58 3 57 3 3 98 c3 90 4 98 27 113 13 8 34 14 46 12 19
-3 24 4 36 47 7 28 11 56 8 63 -5 15 -43 15 -70 0z"/>
<path d="M1013 1455 c-30 -13 -31 -15 -23 -50 11 -47 15 -51 45 -37 34 15 88
15 103 0 19 -19 14 -28 -15 -28 -48 0 -99 -19 -127 -46 -20 -21 -26 -37 -26
-71 0 -38 5 -50 34 -79 28 -28 41 -34 78 -34 24 0 54 7 66 16 20 14 24 14 38
0 22 -23 39 -20 76 13 31 28 32 30 15 48 -13 15 -17 38 -17 102 0 94 -15 132
-63 161 -38 24 -135 26 -184 5z m137 -210 c0 -15 -10 -31 -26 -41 -24 -16 -26
-16 -42 0 -26 26 3 57 61 65 4 1 7 -10 7 -24z"/>
<path d="M1740 1459 c-95 -38 -133 -166 -76 -262 37 -65 96 -91 183 -84 36 2
69 9 75 15 6 6 13 31 16 57 5 45 4 47 -16 36 -11 -6 -43 -11 -71 -11 -39 0
-56 5 -78 25 l-28 24 87 1 c84 0 87 1 113 31 28 34 28 71 -2 117 -34 54 -132
79 -203 51z m118 -107 c2 -8 -14 -12 -53 -12 -52 0 -56 2 -44 16 29 36 84 33
97 -4z"/>
<path d="M2284 1456 c-43 -19 -64 -53 -64 -101 0 -48 30 -83 93 -109 41 -17
45 -39 9 -44 -12 -2 -42 6 -67 17 l-46 20 6 -47 c8 -55 22 -69 81 -78 78 -11
136 15 160 73 27 62 -7 122 -83 148 -21 7 -38 19 -38 27 0 17 48 23 73 9 17
-9 21 -7 26 17 4 15 9 35 12 44 10 33 -103 49 -162 24z"/>
<path d="M1280 1458 c0 -2 28 -77 63 -168 l63 -165 45 -3 45 -3 62 163 c34 90
62 167 62 171 0 5 -23 7 -52 5 l-52 -3 -31 -87 -30 -86 -31 86 -31 87 -56 3
c-32 2 -57 2 -57 0z"/>
<path d="M1130 946 c-3 -3 -4 -23 -2 -45 3 -32 8 -41 23 -41 11 0 23 10 28 22
7 19 8 20 14 3 4 -9 2 -24 -4 -32 -7 -7 -9 -16 -6 -19 8 -8 47 56 47 76 -1 12
-3 11 -14 -3 -12 -15 -14 -16 -20 -2 -3 8 -9 15 -13 14 -24 -4 -42 3 -45 17
-2 9 -5 13 -8 10z m32 -61 c0 -5 -5 -11 -11 -13 -6 -2 -11 4 -11 13 0 9 5 15
11 13 6 -2 11 -8 11 -13z"/>
<path d="M1382 468 l3 -463 460 0 460 0 3 463 2 462 -465 0 -465 0 2 -462z
m766 292 c12 -12 22 -33 22 -48 0 -30 -91 -174 -97 -155 -3 7 14 39 36 72 23
33 41 71 41 85 0 29 -31 51 -61 43 -10 -3 -19 -2 -19 2 0 28 49 28 78 1z m-27
-20 c21 -12 25 -40 7 -58 -18 -18 -46 -14 -58 7 -13 25 -13 27 6 45 18 19 20
19 45 6z m-379 -112 c8 -7 18 -20 21 -29 6 -18 -18 -59 -34 -59 -6 0 -3 7 5
16 9 8 16 22 16 29 0 15 -27 45 -40 45 -11 0 -40 -29 -40 -41 0 -5 9 -18 20
-29 13 -13 15 -20 7 -20 -39 0 -50 60 -15 84 27 19 39 20 60 4z m-179 -35 c9
-21 13 -41 8 -46 -5 -5 -13 4 -19 20 -5 15 -13 36 -17 46 -14 34 11 16 28 -20z
m50 5 l14 -33 7 33 c4 17 12 32 17 32 7 0 -16 -74 -28 -89 -1 -2 -8 10 -14 28
-9 24 -14 29 -20 19 -10 -15 -12 2 -3 26 9 22 12 20 27 -16z m177 12 c0 -12 7
-20 16 -20 11 0 15 6 11 20 -5 21 7 28 18 10 4 -6 1 -18 -6 -26 -9 -11 -8 -18
6 -34 10 -11 13 -20 7 -20 -7 0 -17 9 -24 20 -7 11 -17 20 -22 20 -4 0 -6 -9
-3 -20 3 -11 0 -20 -6 -20 -7 0 -12 18 -12 45 0 25 3 45 8 45 4 0 7 -9 7 -20z
m102 -25 c2 -31 -1 -45 -9 -45 -9 0 -13 16 -13 45 0 25 4 45 9 45 5 0 11 -20
13 -45z m78 4 c0 -38 1 -40 28 -37 34 4 44 45 16 65 -16 12 -16 13 -1 13 10 0
23 -11 29 -25 15 -34 -12 -65 -59 -65 -33 0 -33 1 -33 45 0 25 5 45 10 45 6 0
10 -18 10 -41z m-30 -39 c0 -5 -8 -10 -17 -10 -15 0 -16 2 -3 10 19 12 20 12
20 0z m-330 -39 c0 -5 -8 -8 -17 -7 -15 1 -18 -7 -17 -41 0 -24 -3 -43 -8 -43
-4 0 -8 20 -8 45 0 46 -7 54 -28 33 -9 -9 -12 -8 -12 5 0 13 9 17 45 17 25 0
45 -4 45 -9z m70 -1 c12 -7 13 -13 4 -28 -9 -14 -9 -22 1 -35 18 -25 22 -22
46 31 14 30 23 42 27 32 2 -8 13 -32 24 -52 16 -32 16 -38 3 -38 -8 0 -15 9
-15 20 0 13 -7 20 -20 20 -13 0 -20 -7 -20 -20 0 -15 -7 -20 -25 -20 -14 0
-29 8 -35 20 -6 11 -15 20 -21 20 -6 0 -8 -9 -4 -20 4 -11 2 -20 -4 -20 -6 0
-11 21 -11 50 0 52 14 63 50 40z m130 -8 c0 -10 6 -27 14 -37 12 -17 14 -16
27 18 7 20 17 37 21 37 4 0 8 -2 8 -5 0 -10 -44 -95 -50 -95 -3 0 -16 23 -27
50 -17 40 -18 50 -7 50 8 0 14 -8 14 -18z m145 8 c4 -6 -4 -9 -17 -7 -21 2
-23 -2 -22 -40 1 -24 -2 -43 -7 -43 -5 0 -9 23 -9 50 0 46 2 50 24 50 14 0 28
-4 31 -10z m50 -40 c0 -33 -4 -50 -12 -50 -9 0 -13 17 -13 50 0 33 4 50 13 50
8 0 12 -17 12 -50z m123 24 c3 -18 2 -18 -8 -1 -6 9 -16 15 -22 11 -5 -4 6
-23 28 -45 40 -41 37 -55 -3 -17 -13 12 -26 18 -30 14 -5 -4 1 -14 11 -22 16
-11 17 -14 4 -14 -22 0 -43 26 -28 35 6 4 9 14 6 22 -7 18 12 45 28 40 6 -2
12 -12 14 -23z m-178 -24 c0 -5 -2 -10 -4 -10 -3 0 -8 5 -11 10 -3 6 -1 10 4
10 6 0 11 -4 11 -10z m15 -40 c-3 -5 -11 -10 -16 -10 -6 0 -7 5 -4 10 3 6 11
10 16 10 6 0 7 -4 4 -10z m85 0 c0 -5 -5 -10 -11 -10 -5 0 -7 5 -4 10 3 6 8
10 11 10 2 0 4 -4 4 -10z m-475 -79 c0 -27 -3 -47 -7 -44 -5 2 -8 22 -8 45 0
35 -2 40 -20 35 -11 -3 -20 -1 -20 4 0 5 12 9 28 9 26 0 27 -2 27 -49z m35 39
c0 -5 -2 -10 -4 -10 -3 0 -8 5 -11 10 -3 6 -1 10 4 10 6 0 11 -4 11 -10z m92
-7 c22 -20 23 -41 1 -65 -20 -22 -51 -23 -75 -1 -22 20 -23 41 -1 65 20 22 51
23 75 1z m41 -16 c-3 -23 0 -37 11 -46 27 -22 46 -6 46 39 0 22 4 40 9 40 12
0 2 -70 -12 -87 -5 -7 -17 -13 -27 -13 -24 0 -37 19 -42 63 -3 25 0 37 8 37 9
0 11 -11 7 -33z m150 -1 c-1 -17 3 -36 9 -43 18 -22 3 -25 -16 -4 -14 15 -15
24 -7 39 10 19 6 32 -11 32 -4 0 -8 -20 -8 -45 0 -25 -4 -45 -10 -45 -5 0 -10
23 -10 51 0 49 1 50 28 47 23 -3 27 -7 25 -32z m59 -8 c-6 -61 -17 -66 -17 -7
0 27 5 49 10 49 6 0 9 -18 7 -42z m41 23 c-3 -13 2 -20 17 -24 32 -8 24 -52
-9 -52 -13 0 -27 7 -29 15 -5 13 -3 13 12 1 14 -12 19 -12 29 -1 8 9 9 14 1
17 -29 10 -47 31 -41 47 9 22 26 20 20 -3z m37 9 c0 -5 -2 -10 -4 -10 -3 0 -8
5 -11 10 -3 6 -1 10 4 10 6 0 11 -4 11 -10z m56 -25 l19 -35 18 35 c25 49 37
44 37 -15 0 -27 -4 -50 -10 -50 -5 0 -10 17 -11 38 l0 37 -16 -32 c-9 -18 -19
-33 -23 -33 -5 0 -24 33 -48 83 -2 4 0 7 6 7 5 0 17 -16 28 -35z m-17 -57 c1
-5 -3 -8 -9 -8 -5 0 -10 12 -9 28 0 24 1 25 9 7 5 -11 9 -23 9 -27z m-449 -36
c0 -5 -13 -7 -29 -4 -22 3 -32 -1 -40 -16 -21 -39 12 -72 50 -52 12 7 19 7 19
1 0 -19 -41 -23 -65 -7 -27 18 -33 54 -13 74 13 13 78 17 78 4z m98 -4 c17
-17 15 -53 -4 -68 -13 -12 -14 -10 -3 13 14 30 -1 57 -31 57 -44 0 -50 -57 -7
-78 17 -8 18 -11 5 -11 -21 -1 -60 47 -51 63 16 28 27 36 52 36 15 0 32 -5 39
-12z m42 -26 c0 -21 5 -43 12 -50 7 -7 9 -12 6 -12 -4 0 -14 7 -22 16 -18 17
-22 84 -6 84 6 0 10 -17 10 -38z m70 5 c0 -23 -7 -40 -22 -53 l-23 -19 19 22
c13 16 17 31 13 53 -4 17 -2 30 3 30 6 0 10 -15 10 -33z m62 3 c12 -16 26 -30
31 -30 5 0 7 14 5 30 -3 17 -1 30 4 30 4 0 7 -20 6 -45 0 -25 -4 -45 -7 -45
-6 0 -81 80 -81 86 0 14 23 -1 42 -26z m148 22 c0 -5 -13 -7 -29 -4 -22 3 -32
-1 -40 -16 -21 -39 12 -72 50 -52 12 7 19 7 19 1 0 -19 -41 -23 -65 -7 -27 18
-33 54 -13 74 13 13 78 17 78 4z m40 -37 c0 -25 -4 -45 -9 -45 -5 0 -11 20
-13 45 -2 31 1 45 9 45 9 0 13 -16 13 -45z m45 0 c0 -25 -4 -45 -10 -45 -5 0
-10 20 -10 45 0 25 5 45 10 45 6 0 10 -20 10 -45z m-263 -15 c3 -16 1 -30 -4
-30 -4 0 -8 14 -8 30 0 17 2 30 4 30 2 0 6 -13 8 -30z m318 -20 c0 -5 -5 -10
-11 -10 -5 0 -7 5 -4 10 3 6 8 10 11 10 2 0 4 -4 4 -10z"/>
<path d="M1645 500 c-7 -12 2 -30 16 -30 12 0 12 27 0 35 -5 3 -12 1 -16 -5z"/>
<path d="M1740 480 c0 -5 5 -10 11 -10 5 0 7 5 4 10 -3 6 -8 10 -11 10 -2 0
-4 -4 -4 -10z"/>
<path d="M1643 383 c-18 -7 -16 -48 2 -63 23 -19 55 -3 55 30 0 33 -23 47 -57
33z"/>
</g>
</svg>
