<?xml version="1.0"?>
<svg xmlns="http://www.w3.org/2000/svg" id="Outline" viewBox="0 0 512 512" width="512" height="512"><path d="M408,96h16a8,8,0,0,0,0-16H408a8,8,0,0,0,0,16Z"/><path d="M376,128h48a8,8,0,0,0,0-16H376a8,8,0,0,0,0,16Z"/><circle cx="376" cy="88" r="8"/><path d="M337.425,268.557A8,8,0,0,0,344,272h80a8,8,0,0,0,7.155-11.578l-24-48a8,8,0,0,0-14.31,0l-6.653,13.306-10.7-28.537a8,8,0,0,0-14.982,0l-24,64A8,8,0,0,0,337.425,268.557ZM400,233.889,411.056,256H397.544l-3.686-9.829Zm-32-11.105L380.456,256H355.544Z"/><path d="M288,488V432H456a8,8,0,0,0,8-8V24a8,8,0,0,0-8-8H216a8,8,0,0,0-8,8V80H40a8,8,0,0,0-8,8V488a8,8,0,0,0,8,8H280A8,8,0,0,0,288,488ZM285.653,82.339,283.313,80H296a8.009,8.009,0,0,1,8,8v8H288V88A7.976,7.976,0,0,0,285.653,82.339ZM304,112v32H288V112ZM448,32V416H288V384h72a8,8,0,0,0,0-16H288V352H392a8,8,0,0,0,0-16H288V240h24a8,8,0,0,0,0-16H288V208h24a8,8,0,0,0,0-16H288V160h38.473A25.557,25.557,0,0,0,352,134.473V121.527A25.557,25.557,0,0,0,326.473,96H320V88a24.027,24.027,0,0,0-24-24H280a24.021,24.021,0,0,0-10.339,2.347L235.313,32ZM320,144V112h6.473A9.538,9.538,0,0,1,336,121.527v12.946A9.538,9.538,0,0,1,326.473,144ZM224,43.313,260.687,80H224ZM48,96H78.37L48,130.708ZM272,480H48V155.006L99.63,96H272Z"/><path d="M231.136,240.014a23.749,23.749,0,0,0-20.1,12.13,23.212,23.212,0,0,0,0,22.949l14,24.836a8,8,0,0,0,13.938,0l14-24.836a23.212,23.212,0,0,0,0-22.949,23.751,23.751,0,0,0-20.111-12.13C232.288,240,231.719,240,231.136,240.014Zm7.885,19.973a7.28,7.28,0,0,1,.012,7.249L232,279.71l-7.033-12.474a7.28,7.28,0,0,1,.012-7.249,7.775,7.775,0,0,1,6.673-3.981c.116,0,.231-.006.348-.006s.232,0,.34,0A7.781,7.781,0,0,1,239.021,259.987Z"/><path d="M123.056,192H96v-8a8,8,0,0,0-16,0v16a8,8,0,0,0,8,8h35.056l-10.211,20.422a8,8,0,1,0,14.31,7.156L140.944,208H160a8,8,0,0,0,0-16H140.944l-13.789-27.578a8,8,0,0,0-14.31,7.156Z"/><path d="M96,328a56,56,0,1,0,56-56A56.064,56.064,0,0,0,96,328Zm56-40a40,40,0,1,1-40,40A40.045,40.045,0,0,1,152,288Z"/><path d="M173.6,259.3A8,8,0,0,0,178.4,244.03,87.983,87.983,0,0,0,152,240a8,8,0,0,0,0,16A71.973,71.973,0,0,1,173.6,259.3Z"/><path d="M232,320a8,8,0,0,0-8,8,72,72,0,1,1-115.2-57.6,8,8,0,1,0-9.61-12.792A88,88,0,1,0,240,328,8,8,0,0,0,232,320Z"/><path d="M208,448H160a8,8,0,0,0,0,16h48a8,8,0,0,0,0-16Z"/><path d="M128,448H112a8,8,0,0,0,0,16h16a8,8,0,0,0,0-16Z"/><path d="M424,368H392a8,8,0,0,0,0,16h32a8,8,0,0,0,0-16Z"/><path d="M424,304H360a8,8,0,0,0,0,16h64a8,8,0,0,0,0-16Z"/><circle cx="312" cy="264" r="8"/><circle cx="424" cy="344" r="8"/><path d="M328,304H312a8,8,0,0,0,0,16h16a8,8,0,0,0,0-16Z"/><path d="M376,160h48a8,8,0,0,0,0-16H376a8,8,0,0,0,0,16Z"/><path d="M168,144h64a8,8,0,0,0,0-16H168a8,8,0,0,0,0,16Z"/><path d="M232,176a8,8,0,0,0,0-16H216a8,8,0,0,0,0,16Z"/></svg>
