<svg id="Layer_1" enable-background="new 0 0 512 512" height="512" viewBox="0 0 512 512" width="512" xmlns="http://www.w3.org/2000/svg"><path d="m446.605 476.082c0-4.142-3.358-7.5-7.5-7.5h-19.69c0-10.042 0-234.231 0-244.594 0-80.319-57.956-149.017-135.615-162.565 11.45-13.033 12.472-32.804 1.478-47.034-12.502-16.182-35.716-19.161-51.901-6.657-16.703 12.907-19.372 37.465-5.19 53.673-48.775 8.459-91.718 38.877-115.958 83.563-1.975 3.641-.624 8.194 3.017 10.169 3.643 1.975 8.194.624 10.169-3.017 22.993-42.389 64.49-70.64 111.189-76.822l-60.134 60.134c-2.929 2.929-2.929 7.678 0 10.606l61.393 61.394h-129.501c1.003-9.87 2.974-19.602 5.94-29.069 1.239-3.953-.961-8.161-4.914-9.399s-8.161.962-9.399 4.914c-4.872 15.549-7.408 31.899-7.408 48.554 0 10.748.004 235.758.004 246.15h-19.69c-4.142 0-7.5 3.358-7.5 7.5s3.358 7.5 7.5 7.5h9.635l-7.802 8.155c-4.574 4.781-1.132 12.685 5.418 12.685 4.134 0 5.447-2.343 12.44-9.652v9.731c0 4.142 3.358 7.5 7.5 7.5s7.5-3.358 7.5-7.5v-9.731l7.019 7.336c2.866 2.995 7.614 3.096 10.604.235 2.993-2.864 3.098-7.611.235-10.604l-7.802-8.155h9.634c4.142 0 7.5-3.358 7.5-7.5s-3.358-7.5-7.5-7.5h-19.69v-89.162c33.977-1.322 61.214-29.363 61.214-63.661 0-14.969 0-29.93 0-44.933 0-26.45 21.514-48.14 47.959-48.352.24-.002.476-.018.709-.042 4.99 0 72.39.04 77.38.04 26.66 0 48.349 21.692 48.349 48.354v44.933c0 34.299 27.24 62.341 61.218 63.661v89.162h-19.69c-4.142 0-7.5 3.358-7.5 7.5s3.358 7.5 7.5 7.5h9.634l-7.802 8.155c-4.574 4.781-1.131 12.685 5.418 12.685 4.122 0 5.335-2.226 12.439-9.651v9.731c0 4.142 3.358 7.5 7.5 7.5s7.5-3.358 7.5-7.5v-9.731l7.02 7.337c2.863 2.992 7.61 3.098 10.604.234 2.993-2.863 3.098-7.611.234-10.604l-7.802-8.155h9.635c4.142-.002 7.5-3.359 7.5-7.501zm-300.844-253.65-11.759 16.665-11.759-16.665zm0 59.331h-23.518l11.759-16.665zm-38.181-54.093 17.237 24.428-17.237 24.428zm46.219 88.089c0 26.027-20.51 47.353-46.215 48.661 0-.709-.004-9.679-.004-67.656h46.219zm.106-48.471-10.718-15.19 20.933-29.666h12.263c-12.945 10.934-21.479 26.933-22.478 44.856zm88.645-247.688c9.596-7.414 23.409-5.684 30.859 3.958 11.979 15.503-.899 37.754-20.207 35.276-19.293-2.474-26.173-27.241-10.652-39.234zm31.587 187.832 61.393-61.394c2.929-2.929 2.929-7.678 0-10.606l-21.141-21.141c-2.929-2.929-7.678-2.929-10.606 0-2.929 2.929-2.929 7.678 0 10.606l15.838 15.838-63.621 63.622-63.621-63.621 63.621-63.621 26.57 26.57c2.929 2.929 7.678 2.929 10.606 0 2.929-2.929 2.929-7.678 0-10.606l-17.784-17.784c67.281 8.951 120.609 63.81 128.109 132.137zm92.102 15h23.518l-11.759 16.665zm23.518 59.331h-23.518l11.759-16.665zm-54.088-59.331h12.212l20.933 29.666-10.721 15.194c-.993-17.96-9.502-33.941-22.424-44.86zm68.746 141.988c-25.707-1.305-46.219-22.632-46.219-48.661v-18.996h46.219c.001 8.054 0 60.081 0 67.657zm.001-87.9-17.233-24.423 17.233-24.423z"/><path d="m261.303 103.631c-2.929-2.929-7.678-2.929-10.606 0l-31.801 31.801c-2.929 2.929-2.929 7.678 0 10.606l31.801 31.801c2.929 2.929 7.678 2.929 10.606 0l31.801-31.801c2.929-2.929 2.929-7.678 0-10.606zm-5.303 58.3-21.195-21.195 21.195-21.195 21.195 21.195z"/><path d="m127.216 341.383c1.124 1.124 2.947 1.124 4.072 0l12.422-12.422c1.124-1.124 1.124-2.947 0-4.072l-12.422-12.422c-1.124-1.124-2.947-1.124-4.072 0l-12.422 12.422c-1.124 1.124-1.124 2.947 0 4.072z"/><path d="m157.537 185.886 12.422-12.422c1.124-1.124 1.124-2.947 0-4.072l-12.422-12.422c-1.124-1.124-2.947-1.124-4.072 0l-12.422 12.422c-1.124 1.124-1.124 2.947 0 4.072l12.422 12.422c1.125 1.124 2.948 1.124 4.072 0z"/><path d="m370.957 169.392-12.422-12.422c-1.124-1.124-2.947-1.124-4.072 0l-12.422 12.422c-1.124 1.124-1.124 2.947 0 4.072l12.422 12.422c1.124 1.124 2.947 1.124 4.072 0l12.422-12.422c1.124-1.125 1.124-2.948 0-4.072z"/><path d="m380.712 341.383c1.124 1.124 2.947 1.124 4.072 0l12.422-12.422c1.124-1.124 1.124-2.947 0-4.072l-12.422-12.422c-1.124-1.124-2.947-1.124-4.072 0l-12.422 12.422c-1.124 1.124-1.124 2.947 0 4.072z"/></svg>